<?xml version="1.0" encoding="utf-8"?>
<!-- Generator: Adobe Illustrator 18.1.0, SVG Export Plug-In . SVG Version: 6.00 Build 0)  -->
<!DOCTYPE svg PUBLIC "-//W3C//DTD SVG 1.1//EN" "http://www.w3.org/Graphics/SVG/1.1/DTD/svg11.dtd">
<svg version="1.1" id="Layer_1" xmlns="http://www.w3.org/2000/svg" xmlns:xlink="http://www.w3.org/1999/xlink" x="0px" y="0px"
	 viewBox="0 0 288 216" enable-background="new 0 0 288 216" xml:space="preserve">
<rect x="36" y="0" fill="#E3D3A5" width="216" height="216"/>
<polygon fill="#DFCD9A" points="123.8,150.2 127.5,149.3 124.7,148.1 "/>
<path fill="#DFCD9A" d="M140.9,58.5l-7.7,5.5l-9,6.5l-28,20l12.3,15.7c2.4,3.1,1.9,7.6-1.2,10.1l-1.5,1.2l1.2,1.5
	c2.4,3.1,1.9,7.6-1.2,10.1l-9.3,7.3l-2.4,1.8l4.3-1l11.5-2.8c4-1,8,1.5,8.9,5.5l1.6,6.5l1.1,4.5l2.5-0.6l3.7-0.9l4.8-1.2
	c0.9-0.2,1.8-0.2,2.6-0.1c2.6,0.3,4.9,2,5.9,4.5c1-0.4,1.9-1.1,2.6-1.9l2.5-5l26.1-62.3L140.9,58.5z"/>
<path fill="#DAC68E" d="M154.1,83l-1.9-0.8l0.8-1.9c1.6-3.8-0.2-8.1-4-9.7L133.2,64l-9,6.5l-28,20l12.3,15.7
	c2.4,3.1,1.9,7.6-1.2,10.1l-1.5,1.2l1.2,1.5c2.4,3.1,1.9,7.6-1.2,10.1l-9.3,7.3l-2.4,1.8l4.3-1l11.5-2.8c4-1,8,1.5,8.9,5.5l1.6,6.5
	l1.1,4.5l2.5-0.6l0.9-2.1l2.8,1.2l4.8-1.2c0.9-0.2,1.8-0.2,2.6-0.1l23.2-55.4C159.7,88.9,157.9,84.5,154.1,83z"/>
<path fill="#D4C28E" d="M152.2,82.2l-28.1-11.7l-28,20l12.3,15.7c2.4,3.1,1.9,7.6-1.2,10.1l-1.5,1.2l1.2,1.5
	c2.4,3.1,1.9,7.6-1.2,10.1l-9.3,7.3l1.9,0.8l11.5-2.8c4-1,8,1.5,8.9,5.5l1.6,6.5l4.4,1.8L152.2,82.2z"/>
<path fill="#DFCD9A" d="M192,25l-26.1-13.2l-7.8-3.9l2.5,10.5l0.4,1.7c1,4-1.5,8-5.5,8.9l-2,0.5l0.1,0.2l0.4,1.7
	c0.8,3.3-0.7,6.6-3.5,8.2l0.4,0.5c0.2,0.3,0.4,0.6,0.5,0.9c2.1,3.7,1.3,8.4-2,11.2l34.7,27.5l8.1-6.4l8.3-6.5l13.8-10.8L192,25z"/>
<path fill="#DFCD9A" d="M115.8,48.3l-29.9,7.2L71.5,59l3.4,4.4l7.1,9.1l7,8.9l43.7-31.2c2.3-1.7,3.6-4.2,3.8-6.8L115.8,48.3z"/>
<polygon fill="#DAC68E" points="85.9,55.5 71.5,59 75,63.3 82.1,72.4 115.8,48.3 "/>
<polygon fill="#D4C28E" points="75,63.3 85.9,55.5 71.5,59 "/>
<path fill="#DFCD9A" d="M237.3,201.5l-3.3-13.9l-2.6-10.9c-3.1,2.1-7.3,1.5-9.7-1.5l-36.3-46.5l-0.3-0.4l-12.2-15.6l-28.1,55.7
	l3.3,13.6l1.6,6.7l1.7,7.2l1.1,4.6l2.8,11.5l7.7,3.9h20.1h20.5h16H230h10.1l0.5-0.9L237.3,201.5z"/>
<path fill="#DFCD9A" d="M250.7,41l-6.7-28l-7.5,14.9l-0.4,0.8c-1.8,3.6-6.2,5-9.7,3.2l-1.8-0.9l0,0l-0.9,1.7
	c-1.8,3.5-5.9,4.9-9.4,3.4l9.2,12.9l8.9-7l6.1-4.8c1.1-0.8,2.3-1.3,3.6-1.5c2.4-0.3,4.9,0.6,6.5,2.7l2.2,2.7
	C250.7,41.1,250.7,41.1,250.7,41z"/>
<path fill="#DAC68E" d="M250.7,41l-6.7-28l-7.5,14.9l-0.4,0.8c-1.8,3.6-6.2,5-9.7,3.2l-1.8-0.9l0,0l7.9,11l6.1-4.8
	c1.1-0.8,2.3-1.3,3.6-1.5c2.4-0.3,4.9,0.6,6.5,2.7l2.2,2.7C250.7,41.1,250.7,41.1,250.7,41z"/>
<path fill="#D4C28E" d="M248.6,38.5l2.2,2.7c0-0.1-0.1-0.2-0.1-0.3l-6.7-28l-7.5,14.9l5.7,7.9C244.5,35.5,247,36.4,248.6,38.5z"/>
<polygon fill="#DFCD9A" points="238.3,165.1 250.5,216 252,216 252,161.8 "/>
<path fill="#DAC68E" d="M205.8,11.4c3.6,1.8,7.9,0.4,9.7-3.2l0.9-1.8L203.7,0h-20.5L205.8,11.4z"/>
<polygon fill="#DFCD9A" points="230,0 219.6,0 203.7,0 183.1,0 163,0 224.5,31 240.1,0 "/>
<path fill="#DAC68E" d="M219.6,0h-16h-20.5l22.6,11.4c3.6,1.8,7.9,0.4,9.7-3.2l0.9-1.8l1.8,0.9c3.6,1.8,7.9,0.4,9.7-3.2L230,0H219.6
	z"/>
<polygon fill="#D4C28E" points="216.4,6.4 219.6,0 203.7,0 "/>
<path fill="#DFCD9A" d="M146.5,0H137h-9.7H53.8h-9.7H36v6.2l5.6,23.4c1,4,5,6.4,8.9,5.5l1.8-0.4l2.2,9.2l9.2-2.2l0.4,1.8
	c1,4,5,6.4,8.9,5.5l80.5-19.4L146.5,0z"/>
<path fill="#DAC68E" d="M138.5,6.3L137,0h-9.7H53.8h-9.7l8.3,34.6l9.2-2.2l2.2,9.2l62.3-15c4-1,6.4-5,5.5-8.9l-0.5-2l2-0.5
	C137,14.3,139.5,10.3,138.5,6.3z"/>
<polygon fill="#D4C28E" points="61.6,32.4 131.1,15.7 127.3,0 53.8,0 "/>
<polygon fill="#DFCD9A" points="252,0 250.5,0 252,6.2 "/>
<polygon fill="#DAC68E" points="158.1,7.9 160.7,18.4 165.9,11.8 "/>
<path fill="#DAC68E" d="M192,25l-26.1-13.2l-7.8-3.9l2.5,10.5l0.4,1.7c1,4-1.5,8-5.5,8.9l-2,0.5l0.1,0.2l0.4,1.7
	c0.8,3.3-0.7,6.6-3.5,8.2l0.4,0.5c0.2,0.3,0.4,0.6,0.5,0.9l40.8,32.4l8.3-6.5l13.8-10.8L192,25z"/>
<path fill="#D4C28E" d="M160.7,18.4l0.4,1.7c1,4-1.5,8-5.5,8.9l-2,0.5l0.1,0.2l46.9,37.2l13.8-10.8L192,25l-26.1-13.2"/>
<path fill="#DFCD9A" d="M60,59L60,59l-2.4-3l-1.2-1.6c-2.4-3.1-6.9-3.7-10.1-1.2l-1.4,1.1l-5.6-7.2L36,49.7v8v3.6v87.7v3.1l15.6-3.8
	l21-5l33.1-25.9L60,59z"/>
<path fill="#DAC68E" d="M80.3,114.3l1.5-1.2c3.1-2.4,3.7-6.9,1.2-10.1L44.9,54.3l-7.2,5.6L36,57.7v3.6v87.7v3.1l15.6-3.8l28.7-22.4
	c3.1-2.4,3.7-6.9,1.2-10.1L80.3,114.3z"/>
<polyline fill="#DAC68E" points="36,61.3 37.7,59.9 36,57.7 "/>
<polygon fill="#D4C28E" points="80.3,114.3 37.7,59.9 36,61.3 36,148.9 "/>
<path fill="#DFCD9A" d="M134.3,165c-1-4-5-6.4-8.9-5.5l-1.8,0.4l-2.2-9.2l-9.2,2.2l-0.4-1.8c-1-4-5-6.4-8.9-5.5L36,161.8V216h8.1
	h9.7h73.5h9.7h9.5L134.3,165z"/>
<path fill="#DAC68E" d="M123.5,160l-9.2,2.2l-2.2-9.2l-62.3,15c-4,1-6.4,5-5.5,8.9l0.5,2l-2,0.5c-4,1-6.4,5-5.5,8.9l6.7,27.7h9.7
	h73.5h9.7L123.5,160z"/>
<polygon fill="#D4C28E" points="114.4,162.2 44.8,178.9 53.8,216 127.3,216 "/>
<path fill="#DFCD9A" d="M248.1,52.7l-1.1-1.4c-2.4-3.1-6.9-3.7-10.1-1.2l-63,49.3l49.3,63c2.4,3.1,6.9,3.7,10.1,1.2l1.4-1.1l2.3,2.9
	l1.3-0.3l-0.5-2c-0.2-1-0.3-2-0.1-3c0.3-1.9,1.4-3.6,3-4.8c0.8-0.5,1.6-0.9,2.6-1.2l3-0.7l5.8-1.4v-3.1V61.3v-3.6v-8L248.1,52.7z"/>
<path fill="#DAC68E" d="M248.1,52.7l-48.8,38.1c-3.1,2.4-3.7,6.9-1.2,10.1l1.2,1.5l-1.5,1.2c-3.1,2.4-3.7,6.9-1.2,10.1l38.1,48.8
	l3-2.3c0.3-1.9,1.4-3.6,3-4.8c0.8-0.5,1.6-0.9,2.6-1.2l3-0.7l5.8-1.4v-3.1V61.3v-3.6L248.1,52.7z"/>
<path fill="#D4C28E" d="M199.3,102.4l41.4,52.9c0.8-0.5,1.6-0.9,2.6-1.2l3-0.7l5.8-4.5V61.3L199.3,102.4z"/>
<path fill="#DAC68E" d="M234,187.6l-2.6-10.9c-3.1,2.1-7.3,1.5-9.7-1.5l-36.3-46.5l-0.3-0.4l-1.4-0.7c-3.6-1.8-7.9-0.4-9.7,3.2
	l-25.8,51.3l1.6,6.7l4.3,2.1l-2.5,5l1.1,4.6l30.6,15.4h20.5h16H230l7.3-14.5L234,187.6z"/>
<path fill="#D4C28E" d="M234,187.6l-2.6-10.9c-3.1,2.1-7.3,1.5-9.7-1.5l-36.3-46.5L154,191l49.7,25h16L234,187.6z"/>
</svg>
