<?xml version="1.0" encoding="UTF-8" standalone="no"?>
<!-- Created with Inkscape (http://www.inkscape.org/) -->

<svg
   xmlns:dc="http://purl.org/dc/elements/1.1/"
   xmlns:cc="http://creativecommons.org/ns#"
   xmlns:rdf="http://www.w3.org/1999/02/22-rdf-syntax-ns#"
   xmlns:svg="http://www.w3.org/2000/svg"
   xmlns="http://www.w3.org/2000/svg"
   version="1.1"
   width="100%"
   height="100%"
   viewBox="0 0 216.1 216"
   id="Layer_1"
   xml:space="preserve"
   preserveAspectRatio="xMinYMin slice"><metadata
     id="metadata81"><rdf:RDF><cc:Work
         rdf:about=""><dc:format>image/svg+xml</dc:format><dc:type
           rdf:resource="http://purl.org/dc/dcmitype/StillImage" /><dc:title></dc:title></cc:Work></rdf:RDF></metadata><defs
     id="defs79" /><rect
     width="216"
     height="216"
     x="0"
     y="0"
     id="rect3"
     style="fill:#e3d3a5" /><polygon
     points="127.5,149.3 124.7,148.1 123.8,150.2 "
     transform="translate(-36,0)"
     id="polygon5"
     style="fill:#dfcd9a" /><path
     d="m 104.9,58.5 -7.7,5.5 -9,6.5 -28,20 12.3,15.7 c 2.4,3.1 1.9,7.6 -1.2,10.1 l -1.5,1.2 1.2,1.5 c 2.4,3.1 1.9,7.6 -1.2,10.1 l -9.3,7.3 -2.4,1.8 4.3,-1 11.5,-2.8 c 4,-1 8,1.5 8.9,5.5 l 1.6,6.5 1.1,4.5 2.5,-0.6 3.7,-0.9 4.8,-1.2 c 0.9,-0.2 1.8,-0.2 2.6,-0.1 2.6,0.3 4.9,2 5.9,4.5 1,-0.4 1.9,-1.1 2.6,-1.9 l 2.5,-5 26.1,-62.3 -31.3,-24.9 z"
     id="path7"
     style="fill:#dfcd9a" /><path
     d="m 118.1,83 -1.9,-0.8 0.8,-1.9 c 1.6,-3.8 -0.2,-8.1 -4,-9.7 L 97.2,64 l -9,6.5 -28,20 12.3,15.7 c 2.4,3.1 1.9,7.6 -1.2,10.1 l -1.5,1.2 1.2,1.5 c 2.4,3.1 1.9,7.6 -1.2,10.1 l -9.3,7.3 -2.4,1.8 4.3,-1 11.5,-2.8 c 4,-1 8,1.5 8.9,5.5 l 1.6,6.5 1.1,4.5 2.5,-0.6 0.9,-2.1 2.8,1.2 4.8,-1.2 c 0.9,-0.2 1.8,-0.2 2.6,-0.1 l 23.2,-55.4 c 1.4,-3.8 -0.4,-8.2 -4.2,-9.7 z"
     id="path9"
     style="fill:#dac68e" /><path
     d="m 116.2,82.2 -28.1,-11.7 -28,20 12.3,15.7 c 2.4,3.1 1.9,7.6 -1.2,10.1 l -1.5,1.2 1.2,1.5 c 2.4,3.1 1.9,7.6 -1.2,10.1 l -9.3,7.3 1.9,0.8 11.5,-2.8 c 4,-1 8,1.5 8.9,5.5 l 1.6,6.5 4.4,1.8 27.5,-66 z"
     id="path11"
     style="fill:#d4c28e" /><path
     d="m 156,25 -26.1,-13.2 -7.8,-3.9 2.5,10.5 0.4,1.7 c 1,4 -1.5,8 -5.5,8.9 l -2,0.5 0.1,0.2 0.4,1.7 c 0.8,3.3 -0.7,6.6 -3.5,8.2 l 0.4,0.5 c 0.2,0.3 0.4,0.6 0.5,0.9 2.1,3.7 1.3,8.4 -2,11.2 l 34.7,27.5 8.1,-6.4 8.3,-6.5 L 178.3,56 156,25 z"
     id="path13"
     style="fill:#dfcd9a" /><path
     d="m 79.8,48.3 -29.9,7.2 -14.4,3.5 3.4,4.4 7.1,9.1 7,8.9 43.7,-31.2 c 2.3,-1.7 3.6,-4.2 3.8,-6.8 l -20.7,4.9 z"
     id="path15"
     style="fill:#dfcd9a" /><polygon
     points="115.8,48.3 85.9,55.5 71.5,59 75,63.3 82.1,72.4 "
     transform="translate(-36,0)"
     id="polygon17"
     style="fill:#dac68e" /><polygon
     points="85.9,55.5 71.5,59 75,63.3 "
     transform="translate(-36,0)"
     id="polygon19"
     style="fill:#d4c28e" /><path
     d="m 201.3,201.5 -3.3,-13.9 -2.6,-10.9 c -3.1,2.1 -7.3,1.5 -9.7,-1.5 l -36.3,-46.5 -0.3,-0.4 -12.2,-15.6 -28.1,55.7 3.3,13.6 1.6,6.7 1.7,7.2 1.1,4.6 2.8,11.5 7.7,3.9 h 20.1 20.5 16 10.4 10.1 l 0.5,-0.9 -3.3,-13.5 z"
     id="path21"
     style="fill:#dfcd9a" /><path
     d="m 214.7,41 -6.7,-28 -7.5,14.9 -0.4,0.8 c -1.8,3.6 -6.2,5 -9.7,3.2 l -1.8,-0.9 0,0 -0.9,1.7 c -1.8,3.5 -5.9,4.9 -9.4,3.4 l 9.2,12.9 8.9,-7 6.1,-4.8 c 1.1,-0.8 2.3,-1.3 3.6,-1.5 2.4,-0.3 4.9,0.6 6.5,2.7 l 2.2,2.7 c -0.1,0 -0.1,0 -0.1,-0.1 z"
     id="path23"
     style="fill:#dfcd9a" /><path
     d="m 214.7,41 -6.7,-28 -7.5,14.9 -0.4,0.8 c -1.8,3.6 -6.2,5 -9.7,3.2 l -1.8,-0.9 0,0 7.9,11 6.1,-4.8 c 1.1,-0.8 2.3,-1.3 3.6,-1.5 2.4,-0.3 4.9,0.6 6.5,2.7 l 2.2,2.7 c -0.2,0 -0.2,0 -0.2,-0.1 z"
     id="path25"
     style="fill:#dac68e" /><path
     d="m 212.6,38.5 2.2,2.7 c 0,-0.1 -0.1,-0.2 -0.1,-0.3 l -6.7,-28 -7.5,14.9 5.7,7.9 c 2.3,-0.2 4.8,0.7 6.4,2.8 z"
     id="path27"
     style="fill:#d4c28e" /><polygon
     points="238.3,165.1 250.5,216 252,216 252,161.8 "
     transform="translate(-36,0)"
     id="polygon29"
     style="fill:#dfcd9a" /><path
     d="m 169.8,11.4 c 3.6,1.8 7.9,0.4 9.7,-3.2 L 180.4,6.4 167.7,0 h -20.5 l 22.6,11.4 z"
     id="path31"
     style="fill:#dac68e" /><polygon
     points="163,0 224.5,31 240.1,0 230,0 219.6,0 203.7,0 183.1,0 "
     transform="translate(-36,0)"
     id="polygon33"
     style="fill:#dfcd9a" /><path
     d="m 183.6,0 h -16 -20.5 l 22.6,11.4 c 3.6,1.8 7.9,0.4 9.7,-3.2 l 0.9,-1.8 1.8,0.9 c 3.6,1.8 7.9,0.4 9.7,-3.2 L 194,0 h -10.4 z"
     id="path35"
     style="fill:#dac68e" /><polygon
     points="219.6,0 203.7,0 216.4,6.4 "
     transform="translate(-36,0)"
     id="polygon37"
     style="fill:#d4c28e" /><path
     d="M 110.5,0 H 101 91.3 17.8 8.1 0 v 6.2 l 5.6,23.4 c 1,4 5,6.4 8.9,5.5 l 1.8,-0.4 2.2,9.2 9.2,-2.2 0.4,1.8 c 1,4 5,6.4 8.9,5.5 L 117.5,29.6 110.5,0 z"
     id="path39"
     style="fill:#dfcd9a" /><path
     d="M 102.5,6.3 101,0 H 91.3 17.8 8.1 l 8.3,34.6 9.2,-2.2 2.2,9.2 62.3,-15 c 4,-1 6.4,-5 5.5,-8.9 l -0.5,-2 2,-0.5 c 3.9,-0.9 6.4,-4.9 5.4,-8.9 z"
     id="path41"
     style="fill:#dac68e" /><polygon
     points="61.6,32.4 131.1,15.7 127.3,0 53.8,0 "
     transform="translate(-36,0)"
     id="polygon43"
     style="fill:#d4c28e" /><polygon
     points="250.5,0 252,6.2 252,0 "
     transform="translate(-36,0)"
     id="polygon45"
     style="fill:#dfcd9a" /><polygon
     points="160.7,18.4 165.9,11.8 158.1,7.9 "
     transform="translate(-36,0)"
     id="polygon47"
     style="fill:#dac68e" /><path
     d="m 156,25 -26.1,-13.2 -7.8,-3.9 2.5,10.5 0.4,1.7 c 1,4 -1.5,8 -5.5,8.9 l -2,0.5 0.1,0.2 0.4,1.7 c 0.8,3.3 -0.7,6.6 -3.5,8.2 l 0.4,0.5 c 0.2,0.3 0.4,0.6 0.5,0.9 l 40.8,32.4 8.3,-6.5 L 178.3,56.1 156,25 z"
     id="path49"
     style="fill:#dac68e" /><path
     d="m 124.7,18.4 0.4,1.7 c 1,4 -1.5,8 -5.5,8.9 l -2,0.5 0.1,0.2 46.9,37.2 L 178.4,56.1 156,25 129.9,11.8"
     id="path51"
     style="fill:#d4c28e" /><path
     d="m 24,59 0,0 -2.4,-3 -1.2,-1.6 C 18,51.3 13.5,50.7 10.3,53.2 L 8.9,54.3 3.3,47.1 0,49.7 v 8 3.6 87.7 3.1 l 15.6,-3.8 21,-5 L 69.7,117.4 24,59 z"
     id="path53"
     style="fill:#dfcd9a" /><path
     d="m 44.3,114.3 1.5,-1.2 c 3.1,-2.4 3.7,-6.9 1.2,-10.1 L 8.9,54.3 1.7,59.9 0,57.7 v 3.6 87.7 3.1 l 15.6,-3.8 28.7,-22.4 c 3.1,-2.4 3.7,-6.9 1.2,-10.1 l -1.2,-1.5 z"
     id="path55"
     style="fill:#dac68e" /><polyline
     points="36,61.3 37.7,59.9 36,57.7 "
     id="polyline57"
     style="fill:#dac68e"
     transform="translate(-36,0)" /><polygon
     points="80.3,114.3 37.7,59.9 36,61.3 36,148.9 "
     transform="translate(-36,0)"
     id="polygon59"
     style="fill:#d4c28e" /><path
     d="m 98.3,165 c -1,-4 -5,-6.4 -8.9,-5.5 l -1.8,0.4 -2.2,-9.2 -9.2,2.2 -0.4,-1.8 c -1,-4 -5,-6.4 -8.9,-5.5 L 0,161.8 V 216 h 8.1 9.7 73.5 9.7 9.5 L 98.3,165 z"
     id="path61"
     style="fill:#dfcd9a" /><path
     d="m 87.5,160 -9.2,2.2 -2.2,-9.2 -62.3,15 c -4,1 -6.4,5 -5.5,8.9 l 0.5,2 -2,0.5 c -4,1 -6.4,5 -5.5,8.9 L 8,216 h 9.7 73.5 9.7 L 87.5,160 z"
     id="path63"
     style="fill:#dac68e" /><polygon
     points="114.4,162.2 44.8,178.9 53.8,216 127.3,216 "
     transform="translate(-36,0)"
     id="polygon65"
     style="fill:#d4c28e" /><path
     d="M 212.1,52.7 211,51.3 c -2.4,-3.1 -6.9,-3.7 -10.1,-1.2 l -63,49.3 49.3,63 c 2.4,3.1 6.9,3.7 10.1,1.2 l 1.4,-1.1 2.3,2.9 1.3,-0.3 -0.5,-2 c -0.2,-1 -0.3,-2 -0.1,-3 0.3,-1.9 1.4,-3.6 3,-4.8 0.8,-0.5 1.6,-0.9 2.6,-1.2 l 3,-0.7 5.8,-1.4 v -3.1 -87.6 -3.6 -8 l -4,3 z"
     id="path67"
     style="fill:#dfcd9a" /><path
     d="m 212.1,52.7 -48.8,38.1 c -3.1,2.4 -3.7,6.9 -1.2,10.1 l 1.2,1.5 -1.5,1.2 c -3.1,2.4 -3.7,6.9 -1.2,10.1 l 38.1,48.8 3,-2.3 c 0.3,-1.9 1.4,-3.6 3,-4.8 0.8,-0.5 1.6,-0.9 2.6,-1.2 l 3,-0.7 5.8,-1.4 V 149 61.3 57.7 l -4,-5 z"
     id="path69"
     style="fill:#dac68e" /><path
     d="m 163.3,102.4 41.4,52.9 c 0.8,-0.5 1.6,-0.9 2.6,-1.2 l 3,-0.7 5.8,-4.5 V 61.3 l -52.8,41.1 z"
     id="path71"
     style="fill:#d4c28e" /><path
     d="m 198,187.6 -2.6,-10.9 c -3.1,2.1 -7.3,1.5 -9.7,-1.5 l -36.3,-46.5 -0.3,-0.4 -1.4,-0.7 c -3.6,-1.8 -7.9,-0.4 -9.7,3.2 l -25.8,51.3 1.6,6.7 4.3,2.1 -2.5,5 1.1,4.6 30.6,15.4 h 20.5 16 10.2 l 7.3,-14.5 -3.3,-13.8 z"
     id="path73"
     style="fill:#dac68e" /><path
     d="m 198,187.6 -2.6,-10.9 c -3.1,2.1 -7.3,1.5 -9.7,-1.5 L 149.4,128.7 118,191 l 49.7,25 h 16 L 198,187.6 z"
     id="path75"
     style="fill:#d4c28e" /></svg>
