<?xml version="1.0" encoding="utf-8"?>
<!-- Generator: Adobe Illustrator 18.0.0, SVG Export Plug-In . SVG Version: 6.00 Build 0)  -->
<!DOCTYPE svg PUBLIC "-//W3C//DTD SVG 1.1//EN" "http://www.w3.org/Graphics/SVG/1.1/DTD/svg11.dtd">
<svg version="1.1" id="Layer_1" xmlns="http://www.w3.org/2000/svg" xmlns:xlink="http://www.w3.org/1999/xlink" x="0px" y="0px"
	 viewBox="0 0 360 360" enable-background="new 0 0 360 360" xml:space="preserve" preserveAspectRatio="xMinYMin slice">
<rect fill="#A0CD5F" width="360" height="360"/>
<polygon fill="#61BA4B" points="146.31,250.35 152.46,248.87 147.76,246.9 "/>
<path fill="#61BA4B" d="M174.82,97.5l-12.8,9.15l-15.05,10.76l-46.66,33.37l20.43,26.12c4.06,5.19,3.15,12.7-2.05,16.76l-2.57,2.01
	l2.01,2.57c4.06,5.19,3.15,12.7-2.05,16.76l-15.53,12.15l-3.92,3.07l7.15-1.72l19.13-4.6c6.64-1.6,13.31,2.49,14.91,9.13l2.59,10.79
	l1.8,7.51l4.1-0.99l6.15-1.48l8.05-1.94c1.48-0.36,2.96-0.41,4.39-0.24c4.31,0.53,8.12,3.32,9.86,7.42
	c1.66-0.71,3.17-1.79,4.39-3.18l4.22-8.38l43.43-103.83L174.82,97.5z"/>
<path fill="#14AB4B" d="M196.85,138.27l-3.12-1.3l1.3-3.12c2.63-6.3-0.34-13.54-6.63-16.17l-26.38-11.04l-15.05,10.76l-46.66,33.37
	l20.43,26.12c4.06,5.19,3.15,12.7-2.05,16.76l-2.57,2.01l2.01,2.57c4.06,5.19,3.15,12.7-2.05,16.76l-15.53,12.15l-3.92,3.07
	l7.15-1.72l19.13-4.6c6.64-1.6,13.31,2.49,14.91,9.13l2.59,10.79l1.8,7.51l4.1-0.99l1.44-3.45l4.71,1.97l8.05-1.94
	c1.48-0.36,2.96-0.41,4.39-0.24l38.59-92.25C206.12,148.15,203.15,140.91,196.85,138.27z"/>
<path fill="#009848" d="M193.74,136.97l-46.76-19.56l-46.66,33.37l20.43,26.12c4.06,5.19,3.15,12.7-2.05,16.76l-2.57,2.01l2.01,2.57
	c4.06,5.19,3.15,12.7-2.05,16.76l-15.53,12.15l3.23,1.35l19.13-4.6c6.64-1.6,13.31,2.49,14.91,9.13l2.59,10.79l7.35,3.07
	L193.74,136.97z"/>
<path fill="#61BA4B" d="M260.06,41.62L216.55,19.7l-12.98-6.54l4.22,17.57l0.67,2.77c1.6,6.64-2.49,13.31-9.13,14.91l-3.28,0.79
	l0.09,0.38l0.7,2.9c1.32,5.47-1.24,10.97-5.9,13.62l0.61,0.85c0.34,0.47,0.64,0.96,0.91,1.45c3.46,6.21,2.1,14.06-3.28,18.74
	l57.78,45.82l13.55-10.6l13.8-10.8l22.95-17.95L260.06,41.62z"/>
<path fill="#61BA4B" d="M132.97,80.55L83.13,92.53l-23.88,5.74l5.69,7.27l11.87,15.17l11.65,14.89l72.75-52.03
	c3.84-2.75,6.01-6.96,6.29-11.33L132.97,80.55z"/>
<polygon fill="#14AB4B" points="83.13,92.53 59.24,98.27 64.93,105.54 76.8,120.72 132.97,80.55 "/>
<polygon fill="#009848" points="64.93,105.54 83.13,92.53 59.24,98.27 "/>
<path fill="#61BA4B" d="M335.52,335.77l-5.57-23.16l-4.37-18.19c-5.16,3.53-12.23,2.49-16.13-2.49l-60.56-77.43l-0.5-0.64
	l-20.27-25.92l-46.77,92.82l5.46,22.73l2.69,11.21l2.87,11.95l1.84,7.66l4.63,19.24l12.81,6.45h33.57h34.21h26.64h17.23h16.91
	l0.76-1.5L335.52,335.77z"/>
<path fill="#61BA4B" d="M357.76,68.27l-11.21-46.62l-12.49,24.8l-0.67,1.34c-3,5.96-10.27,8.36-16.23,5.36l-2.95-1.49l-0.03,0.06
	l-1.45,2.89c-2.92,5.79-9.85,8.2-15.7,5.59l15.41,21.55l14.89-11.65l10.23-8c1.79-1.4,3.85-2.19,5.96-2.44
	c4-0.47,8.14,1.08,10.81,4.49l3.59,4.58C357.86,68.58,357.8,68.43,357.76,68.27z"/>
<path fill="#14AB4B" d="M357.76,68.27l-11.21-46.62l-12.49,24.8l-0.67,1.34c-3,5.96-10.27,8.36-16.23,5.36l-2.95-1.49l-0.03,0.06
	l13.15,18.38l10.23-8c1.79-1.4,3.85-2.19,5.96-2.44c4-0.47,8.14,1.08,10.81,4.49l3.59,4.58C357.86,68.58,357.8,68.43,357.76,68.27z"
	/>
<path fill="#009848" d="M354.31,64.15l3.59,4.58c-0.04-0.16-0.1-0.3-0.14-0.46l-11.21-46.62l-12.49,24.8l9.45,13.21
	C347.51,59.19,351.65,60.75,354.31,64.15z"/>
<polygon fill="#61BA4B" points="337.13,275.14 357.53,360 360,360 360,269.64 "/>
<path fill="#14AB4B" d="M282.97,19.01c5.96,3,13.23,0.61,16.23-5.36l1.49-2.95L279.44,0h-34.21L282.97,19.01z"/>
<polygon fill="#61BA4B" points="323.32,0 306.08,0 279.44,0 245.23,0 211.66,0 314.2,51.66 340.23,0 "/>
<path fill="#14AB4B" d="M306.08,0h-26.64h-34.21l37.74,19.01c5.96,3,13.23,0.61,16.23-5.36l1.49-2.95l2.95,1.49
	c5.96,3,13.23,0.61,16.23-5.36L323.32,0H306.08z"/>
<polygon fill="#009848" points="300.69,10.71 306.08,0 279.44,0 "/>
<path fill="#61BA4B" d="M184.22,0h-15.88h-16.18H29.6H13.42H0v10.26L9.39,49.3c1.6,6.64,8.27,10.72,14.91,9.13l3-0.72L30.97,73
	l15.3-3.68l0.72,3c1.6,6.64,8.27,10.72,14.91,9.13l134.15-32.26L184.22,0z"/>
<path fill="#14AB4B" d="M170.86,10.47L168.34,0h-16.18H29.6H13.42l13.87,57.7l15.3-3.68l3.68,15.3l103.84-24.97
	c6.64-1.6,10.72-8.27,9.13-14.91l-0.79-3.28l3.28-0.79C168.37,23.78,172.45,17.11,170.86,10.47z"/>
<polygon fill="#009848" points="42.59,54.02 158.45,26.17 152.15,0 29.6,0 "/>
<polygon fill="#61BA4B" points="360,0 357.53,0 360,10.26 "/>
<polygon fill="#14AB4B" points="203.57,13.16 207.8,30.73 216.55,19.7 "/>
<path fill="#14AB4B" d="M260.06,41.62L216.55,19.7l-12.98-6.54l4.22,17.57l0.67,2.77c1.6,6.64-2.49,13.31-9.13,14.91l-3.28,0.79
	l0.09,0.38l0.7,2.9c1.32,5.47-1.24,10.97-5.9,13.62l0.61,0.85c0.34,0.47,0.64,0.96,0.91,1.45l68.04,53.96l13.8-10.8l22.95-17.95
	L260.06,41.62z"/>
<path fill="#009848" d="M207.8,30.73l0.67,2.77c1.6,6.64-2.49,13.31-9.13,14.91l-3.28,0.79l0.09,0.38l78.16,61.99l22.95-17.95
	l-37.19-52L216.55,19.7"/>
<path fill="#61BA4B" d="M39.96,98.29L39.96,98.29l-3.92-5.01l-2.04-2.61c-4.06-5.19-11.57-6.11-16.76-2.05l-2.35,1.84L5.52,78.48
	L0,82.79V96.1v5.99v146.16v5.21l26.02-6.26l34.97-8.41l55.13-43.12L39.96,98.29z"/>
<path fill="#14AB4B" d="M73.83,190.51l2.57-2.01c5.19-4.06,6.11-11.57,2.05-16.76L14.88,90.45L2.91,99.82L0,96.1v5.99v146.16v5.21
	l26.02-6.26l47.77-37.36c5.19-4.06,6.11-11.57,2.05-16.76L73.83,190.51z"/>
<polyline fill="#14AB4B" points="0,102.09 2.91,99.82 0,96.1 "/>
<polygon fill="#009848" points="73.83,190.51 2.91,99.82 0,102.09 0,248.25 "/>
<path fill="#61BA4B" d="M163.8,275.04c-1.6-6.64-8.27-10.72-14.91-9.13l-3,0.72l-3.68-15.3l-15.3,3.68l-0.72-3
	c-1.6-6.64-8.27-10.72-14.91-9.13L0,269.64V360h13.42H29.6h122.55h16.18h15.88L163.8,275.04z"/>
<path fill="#14AB4B" d="M145.89,266.63l-15.3,3.68l-3.68-15.3L23.07,279.98c-6.64,1.6-10.72,8.27-9.13,14.91l0.79,3.28l-3.28,0.79
	c-6.64,1.6-10.72,8.27-9.13,14.91L13.42,360H29.6h122.55h16.18L145.89,266.63z"/>
<polygon fill="#009848" points="130.59,270.31 14.73,298.17 29.6,360 152.15,360 "/>
<path fill="#61BA4B" d="M353.54,87.84l-1.84-2.35c-4.06-5.19-11.57-6.11-16.76-2.05l-105.01,82.13l82.13,105.01
	c4.06,5.19,11.57,6.11,16.76,2.05l2.35-1.84l3.8,4.86l2.16-0.52l-0.79-3.28c-0.4-1.68-0.44-3.37-0.17-4.97
	c0.55-3.2,2.35-6.08,5-7.97c1.26-0.9,2.7-1.58,4.29-1.96l4.92-1.18l9.61-2.31v-5.21V102.09V96.1V82.79L353.54,87.84z"/>
<path fill="#14AB4B" d="M353.54,87.84l-81.28,63.57c-5.19,4.06-6.11,11.57-2.05,16.76l2.01,2.57l-2.57,2.01
	c-5.19,4.06-6.11,11.57-2.05,16.76l63.57,81.28l5-3.91c0.55-3.2,2.35-6.08,5-7.97c1.26-0.9,2.7-1.58,4.29-1.96l4.92-1.18l9.61-2.31
	v-5.21V102.09V96.1L353.54,87.84z"/>
<path fill="#009848" d="M272.22,170.75l68.96,88.17c1.26-0.9,2.7-1.58,4.29-1.96l4.92-1.18l9.61-7.52V102.09L272.22,170.75z"/>
<path fill="#14AB4B" d="M329.96,312.62l-4.37-18.19c-5.16,3.53-12.23,2.49-16.13-2.49l-60.56-77.43l-0.5-0.64l-2.3-1.16
	c-5.96-3-13.23-0.61-16.23,5.36l-43.04,85.43l2.69,11.21l7.09,3.57l-4.22,8.38l1.84,7.66l51,25.7h34.21h26.64h17.23l12.21-24.23
	L329.96,312.62z"/>
<path fill="#009848" d="M329.96,312.62l-4.37-18.19c-5.16,3.53-12.23,2.49-16.13-2.49l-60.56-77.43l-52.28,103.77L279.44,360h26.64
	L329.96,312.62z"/>
</svg>
