<svg xmlns="http://www.w3.org/2000/svg" width="126" height="126" viewBox="0 0 126 126" preserveAspectRatio="xMinYMin slice"><path d="M118.492 44.787c-1.71 1.992-3.688 1.816-5.63 1.1-2.701-.996-5.357-2.121-8.001-3.266-6.51-2.817-13.223-4.524-20.392-4.004-5.483.397-10.838 1.454-15.992 3.334-1.839.67-3.66 1.054-5.477 1.16-1.816-.106-3.639-.49-5.477-1.16-5.154-1.88-10.509-2.937-15.992-3.334-7.169-.521-13.882 1.187-20.393 4.004-2.643 1.145-5.299 2.27-8 3.266-1.942.717-3.92.893-5.631-1.1-.652 10.455.201 20.421 4.363 29.906 2.438 5.555 5.883 10.355 10.9 13.834 8.119 5.631 16.968 6.999 26.344 3.814 2.07-.701 3.929-2.111 5.785-3.346 2.875-1.914 5.593-3.238 8.1-3.29 2.506.052 5.225 1.376 8.1 3.29 1.855 1.234 3.715 2.645 5.785 3.346 9.376 3.185 18.225 1.816 26.344-3.814 5.018-3.479 8.463-8.279 10.899-13.834 4.164-9.485 5.018-19.451 4.365-29.906zm-8.309 3.558c1.603 0 2.902 1.301 2.902 2.903 0 1.604-1.3 2.902-2.902 2.902-1.604 0-2.902-1.298-2.902-2.902 0-1.602 1.299-2.903 2.902-2.903zm-8.748-2.823c1.604 0 2.903 1.301 2.903 2.903 0 1.604-1.3 2.902-2.903 2.902s-2.902-1.299-2.902-2.902c0-1.602 1.3-2.903 2.902-2.903zm-8.971-1.333c1.603 0 2.903 1.3 2.903 2.902 0 1.604-1.301 2.903-2.903 2.903-1.604 0-2.902-1.3-2.902-2.903 0-1.602 1.298-2.902 2.902-2.902zm-4.872 12.967c9.185-4.793 20.988-.326 20.988-.326s-2.055 14.217-11.24 19.009c-9.187 4.793-22.021-1.651-22.021-1.651s3.088-12.24 12.273-17.032zm-4.24-12.322c1.604 0 2.903 1.3 2.903 2.902 0 1.604-1.3 2.903-2.903 2.903s-2.902-1.3-2.902-2.903c0-1.602 1.3-2.902 2.902-2.902zm-8.587 3.17c1.603 0 2.902 1.299 2.902 2.902s-1.3 2.903-2.902 2.903c-1.604 0-2.902-1.3-2.902-2.903s1.299-2.902 2.902-2.902zm-12.015.925c2.354 0 4.263 1.908 4.263 4.263s-1.908 4.263-4.263 4.263-4.263-1.908-4.263-4.263 1.909-4.263 4.263-4.263zm-11.265-.896c1.604 0 2.902 1.299 2.902 2.902s-1.299 2.903-2.902 2.903c-1.603 0-2.902-1.3-2.902-2.903s1.299-2.902 2.902-2.902zm-8.587-3.17c1.603 0 2.902 1.3 2.902 2.902 0 1.604-1.3 2.903-2.902 2.903-1.604 0-2.903-1.3-2.903-2.903 0-1.602 1.299-2.902 2.903-2.902zm-9.112-.646c1.604 0 2.902 1.3 2.902 2.902 0 1.604-1.298 2.903-2.902 2.903-1.603 0-2.903-1.3-2.903-2.903-.001-1.602 1.3-2.902 2.903-2.902zm-8.971 1.333c1.603 0 2.902 1.301 2.902 2.903 0 1.604-1.3 2.902-2.902 2.902-1.604 0-2.903-1.299-2.903-2.902 0-1.602 1.299-2.903 2.903-2.903zm13.594 11.606c9.186 4.792 12.273 17.031 12.273 17.031s-12.836 6.444-22.021 1.651c-9.186-4.792-11.242-19.008-11.242-19.008s11.804-4.467 20.99.326zm-22.342-8.782c1.604 0 2.902 1.301 2.902 2.903 0 1.604-1.299 2.902-2.902 2.902-1.603 0-2.902-1.298-2.902-2.902 0-1.603 1.299-2.903 2.902-2.903zm95.402 26.027c-.136.867-.387 1.702-.568 2.266-1.202 3.729-4.471 6.252-7.146 8.279-.334 1.171-.957 2.191-1.809 2.962-2.241 2.025-5.736 2.393-8.133 2.613-1.102 1.164-2.661 1.754-4.641 1.754-2.552 0-5.091-.979-6.504-1.634l-.241.107c-.514.206-1.052.312-1.598.312-2.659 0-5.13-2.485-6.735-4.571-1.265-1.642-2.301-3.447-3.302-5.194-.357-.623-.72-1.256-1.095-1.884l.64 4.022c.057.367-.092.732-.387.955-.285.215-.693.26-1.023.108-1.944-.91-3.874-1.371-5.739-1.371-3.587 0-5.749 1.718-5.771 1.735-.304.254-.768.299-1.119.104-.362-.2-.562-.595-.509-1.006l.554-4.147-.77 1.332c-1.001 1.747-2.035 3.554-3.301 5.196-1.605 2.084-4.076 4.57-6.735 4.57-.546 0-1.083-.105-1.597-.312l-.06-.025c-1.398.643-3.913 1.604-6.437 1.604-1.979 0-3.539-.591-4.641-1.755-2.396-.221-5.892-.588-8.133-2.613-.803-.726-1.406-1.666-1.753-2.729-2.945-2.229-6.242-4.762-7.451-8.513-.18-.557-.43-1.385-.567-2.266-1.324-1.631-6.514-8.59-2.134-12.441.565-.498 1.317-.771 2.116-.771 1.048 0 2.011.473 2.577 1.265.823 1.153 1.35 3.111-.821 5.895-.43.547-1.298.407-1.607-.225-.18-.367-.138-.778.111-1.098.529-.678 1.238-2.605.82-3.464-.097-.197-.354-.466-1.079-.386-.523.059-.947.307-1.262.735-.466.637-.65 1.639-.47 2.554.324 1.637 1.02 3.318 2.025 4.912.313-.638.815-1.104 1.506-1.392.484-.203.998-.306 1.527-.306 2.03 0 4.099 1.565 4.709 3.565.488 1.598-.067 3.077-1.523 4.059-.544.364-1.272.072-1.464-.554-.134-.438.023-.885.401-1.14.719-.483.983-1.054.788-1.693-.331-1.084-1.923-2.188-3.154-2.188-.407 0-.713.123-.908.364-.325.401-.385 1.145-.172 2.148.724 3.414 2.81 5.799 5.75 8.186.098-1.043.435-2.02.995-2.866.753-1.14 1.898-1.768 3.226-1.768 1.571 0 3.033.905 3.557 2.201.291.722.526 2.175-1.162 3.802-.506.485-1.38.26-1.635-.374-.148-.367-.059-.771.234-1.054.614-.592.894-1.386.679-1.931-.205-.522-.821-.641-1.302-.648h-.002c-.715 0-1.275.23-1.714.685-.607.629-.946 1.67-.907 2.785.124 3.562 3.602 4.648 6.926 5.104-.115-.312-.209-.628-.281-.954-.387-1.743.25-4.348 1.42-5.807 1.307-1.631 3.1-1.649 4.664.036.275.296.347.707.188 1.073-.275.629-1.156.823-1.627.313-.244-.262-.614-.575-.995-.575-.722 0-1.351 1.093-1.575 2.121-.275 1.26-.352 3.032.846 4.322l.14.151.071.077c.964.875 2.078 1.301 3.408 1.301 1.489 0 3.047-.555 4.25-1.082-1.708-1.961-1.7-5.026-.897-7.221.891-2.435 2.707-3.947 4.742-3.947.672 0 1.365.158 2.062.471.419.188.629.591.535 1.028-.134.623-.855 1.011-1.448.747-1.149-.515-2.16-.301-2.988.633-1.154 1.303-1.592 3.523-1.418 4.952.143 1.163.645 2.016 1.455 2.475.278-.018.515.094.706.276 1.143.274 2.514-.138 3.598-1.081 2.39-2.078 3.884-4.689 5.466-7.454.933-1.63 1.897-3.315 3.057-4.865l.051-.062 1.817-13.638c.067-.495.494-.867.993-.867l.129.008c.549.074.934.578.862 1.124l-2.717 20.368c1.231-.563 2.952-1.082 5.106-1.082 1.611 0 3.267.297 4.932.884l-3.205-20.143c-.085-.544.287-1.057.831-1.145l.157-.012c.496 0 .911.354.988.845l2.152 13.524c.178.066.334.184.454.346 1.159 1.549 2.124 3.234 3.057 4.864 1.582 2.765 3.076 5.376 5.466 7.454 1.166 1.014 2.717 1.41 3.879 1.003.147-.131.324-.217.511-.246.76-.471 1.232-1.307 1.369-2.427.174-1.429-.265-3.649-1.418-4.952-.828-.935-1.836-1.147-2.989-.633-.588.265-1.313-.123-1.447-.747-.094-.438.116-.841.534-1.028 2.783-1.25 5.52.157 6.751 3.328.839 2.166.913 5.236-.739 7.253 1.243.556 2.862 1.147 4.396 1.147 1.33 0 2.444-.426 3.407-1.3l.073-.079.088-.097c1.248-1.343 1.172-3.115.896-4.376-.225-1.028-.854-2.121-1.575-2.121-.381 0-.751.313-.995.575-.472.51-1.352.314-1.627-.313-.159-.366-.088-.777.188-1.073 1.565-1.686 3.356-1.667 4.664-.036 1.17 1.458 1.807 4.063 1.42 5.807-.073.327-.166.644-.281.954 2.849-.39 5.9-1.252 6.707-3.848-.012-.21.043-.418.155-.599.034-.209.057-.428.063-.657.039-1.116-.3-2.157-.907-2.786-.438-.454-1-.685-1.668-.685-.528.008-1.145.126-1.35.648-.215.545.064 1.339.679 1.931.293.282.383.687.234 1.054-.256.634-1.128.859-1.635.374-1.688-1.627-1.452-3.08-1.161-3.802.522-1.296 1.984-2.201 3.556-2.201 1.327 0 2.473.628 3.226 1.768.523.792.854 1.705.974 2.683 2.81-2.311 4.808-4.635 5.521-8.002.213-1.004.153-1.747-.172-2.147-.196-.242-.502-.365-.908-.365-1.231 0-2.823 1.104-3.154 2.188-.195.64.069 1.21.788 1.693.377.255.535.701.401 1.139-.191.628-.922.92-1.464.555-1.456-.981-2.012-2.461-1.523-4.059.61-2 2.679-3.565 4.709-3.565.529 0 1.043.103 1.528.306.689.288 1.192.754 1.505 1.392 1.007-1.596 1.702-3.276 2.025-4.912.181-.915-.004-1.917-.47-2.554-.314-.429-.738-.677-1.262-.735-.725-.079-.982.188-1.079.387-.419.857.291 2.785.82 3.463.249.319.291.73.111 1.098-.308.632-1.177.774-1.607.225-2.171-2.783-1.645-4.741-.821-5.895.566-.792 1.529-1.265 2.577-1.265.799 0 1.551.273 2.116.771 4.382 3.855-.808 10.813-2.131 12.445z"/></svg>
