<?xml version="1.0" encoding="utf-8"?>
<!-- Generator: Adobe Illustrator 18.0.0, SVG Export Plug-In . SVG Version: 6.00 Build 0)  -->
<!DOCTYPE svg PUBLIC "-//W3C//DTD SVG 1.1//EN" "http://www.w3.org/Graphics/SVG/1.1/DTD/svg11.dtd">
<svg version="1.1" id="Layer_1" xmlns="http://www.w3.org/2000/svg" xmlns:xlink="http://www.w3.org/1999/xlink" x="0px" y="0px"
	 viewBox="0 0 360 360" enable-background="new 0 0 360 360" xml:space="preserve" preserveAspectRatio="xMinYMid slice">
<path fill="#A0CD5F" d="M308.8,119.08l-3.49-1.15l1.15-3.49c2.32-7.04-1.51-14.64-8.55-16.96L152.02,49.41
	c-7.04-2.32-14.64,1.51-16.96,8.55l-6.4,19.42l-19.42-6.4c-7.04-2.32-14.64,1.51-16.96,8.55L44.2,225.42
	c-2.32,7.04,1.51,14.64,8.55,16.96l3.49,1.15l-1.15,3.49c-2.32,7.04,1.51,14.64,8.55,16.96l145.89,48.08
	c7.04,2.32,14.64-1.51,16.96-8.55l6.4-19.42l19.42,6.4c7.04,2.32,14.64-1.51,16.96-8.55l48.08-145.89
	C319.67,128.99,315.84,121.4,308.8,119.08z"/>
<path fill="#61BA4B" d="M162.91,71c-7.04-2.32-14.64,1.51-16.96,8.55l-1.05,3.18l-16.24-5.35l-5.35,16.24l-3.18-1.05
	c-7.04-2.32-14.64,1.51-16.96,8.55l-46.93,142.4l142.4,46.93c7.04,2.32,14.64-1.51,16.96-8.55l1.05-3.18l16.24,5.35l5.35-16.24
	l3.18,1.05c7.04,2.32,14.64-1.51,16.96-8.55l46.93-142.4L162.91,71z"/>
<path fill="#14AB4B" d="M266.01,140.65l-3.49-1.15l1.15-3.49c2.32-7.04-1.51-14.64-8.55-16.96L144.9,82.74l-5.35,16.24l-16.24-5.35
	L86.98,203.85c-2.32,7.04,1.51,14.64,8.55,16.96l3.49,1.15l-1.15,3.49c-2.32,7.04,1.51,14.64,8.55,16.96l110.22,36.32l5.35-16.24
	l16.24,5.35l36.32-110.22C276.89,150.56,273.06,142.97,266.01,140.65z"/>
<g>
	
		<rect x="116.03" y="115.99" transform="matrix(0.313 -0.9498 0.9498 0.313 -47.4533 295.8577)" fill="#009848" width="129.49" height="129.49"/>
</g>
</svg>
