<?xml version="1.0" encoding="utf-8"?>
<!-- Generator: Adobe Illustrator 18.0.0, SVG Export Plug-In . SVG Version: 6.00 Build 0)  -->
<!DOCTYPE svg PUBLIC "-//W3C//DTD SVG 1.1//EN" "http://www.w3.org/Graphics/SVG/1.1/DTD/svg11.dtd">
<svg version="1.1" id="Layer_1" xmlns="http://www.w3.org/2000/svg" xmlns:xlink="http://www.w3.org/1999/xlink" x="0px" y="0px"
	 viewBox="0 0 68.8 66.2" enable-background="new 0 0 68.8 66.2" xml:space="preserve">
<g>
	<g>
		<g>
			<g>
				<path fill="#2BA8E0" d="M3.2,48.8l-0.3,0.9C2.3,51.5,3.3,53.4,5,54L41.6,66c0.3,0.1,0.7,0.2,1.1,0.2c1.4,0,2.7-0.9,3.2-2.3
					l1.6-4.9l-4.1-1.3l-0.3,0.8c-0.5,1.4-1.8,2.3-3.2,2.3c-0.3,0-0.7-0.1-1.1-0.2L3.2,48.8"/>
			</g>
			<g>
				<path fill="#2BA8E0" d="M65.6,17.4L53.9,53.1c-0.5,1.4-1.8,2.3-3.2,2.3c-0.3,0-0.7-0.1-1.1-0.2l-0.8-0.3L47.5,59l4.9,1.6
					c0.3,0.1,0.7,0.2,1.1,0.2c1.4,0,2.7-0.9,3.2-2.3l12.1-36.6c0.6-1.8-0.4-3.7-2.1-4.3L65.6,17.4"/>
			</g>
			<g>
				<polyline fill="#108FCF" points="44.8,53.6 43.4,57.7 47.5,59 48.8,54.9 44.8,53.6 				"/>
			</g>
			<g>
				<path fill="#2BA8E0" d="M15.4,5.4c-1.4,0-2.7,0.9-3.2,2.3L0.2,44.3c-0.6,1.8,0.4,3.7,2.1,4.3l0.9,0.3L15,13.1
					c0.5-1.4,1.8-2.3,3.2-2.3c0.3,0,0.7,0.1,1.1,0.2l0.8,0.3l1.3-4.1l-4.9-1.6C16.1,5.5,15.8,5.4,15.4,5.4"/>
			</g>
			<g>
				<path fill="#108FCF" d="M18.2,10.8c-1.4,0-2.7,0.9-3.2,2.3L3.2,48.8l35.7,11.8c0.3,0.1,0.7,0.2,1.1,0.2c1.4,0,2.7-0.9,3.2-2.3
					l0.3-0.8l-27.6-9.1C14,48,13,46.1,13.6,44.3l0.3-0.9L13,43.1c-1.8-0.6-2.7-2.5-2.1-4.3L20,11.3L19.2,11
					C18.9,10.9,18.5,10.8,18.2,10.8"/>
			</g>
			<g>
				<path fill="#047ABB" d="M13.9,43.4l-0.3,0.9C13,46.1,14,48,15.8,48.6l27.6,9.1l1.3-4.1L13.9,43.4"/>
			</g>
			<g>
				<path fill="#2BA8E0" d="M26.2,0c-1.4,0-2.7,0.9-3.2,2.3l-1.6,4.9l4.1,1.3l0.3-0.8c0.5-1.4,1.8-2.3,3.2-2.3
					c0.3,0,0.7,0.1,1.1,0.2l35.7,11.8l0.3-0.9c0.6-1.8-0.4-3.7-2.1-4.3L27.2,0.2C26.9,0.1,26.5,0,26.2,0"/>
			</g>
			<g>
				<path fill="#108FCF" d="M28.9,5.4c-1.4,0-2.7,0.9-3.2,2.3l-0.3,0.8l27.6,9.1c1.8,0.6,2.7,2.5,2.1,4.3l-0.3,0.9l0.9,0.3
					c1.8,0.6,2.7,2.5,2.1,4.3l-9.1,27.6l0.8,0.3c0.3,0.1,0.7,0.2,1.1,0.2c1.4,0,2.7-0.9,3.2-2.3l11.8-35.7L29.9,5.6
					C29.6,5.5,29.2,5.4,28.9,5.4"/>
			</g>
			<g>
				<path fill="#047ABB" d="M54.9,22.8L44.8,53.6l4.1,1.3l9.1-27.6c0.6-1.8-0.4-3.7-2.1-4.3L54.9,22.8"/>
			</g>
			<g>
				<polyline fill="#108FCF" points="21.3,7.2 20,11.3 24.1,12.6 25.4,8.5 21.3,7.2 				"/>
			</g>
			<g>
				<path fill="#047ABB" d="M20,11.3l-9.1,27.6c-0.6,1.8,0.4,3.7,2.1,4.3l0.9,0.3l10.2-30.8L20,11.3"/>
			</g>
			<g>
				<path fill="#047ABB" d="M25.4,8.5l-1.3,4.1l30.8,10.2l0.3-0.9c0.6-1.8-0.4-3.7-2.1-4.3L25.4,8.5"/>
			</g>
			<g>
				<polyline fill="#036CAE" points="24.1,12.6 13.9,43.4 44.8,53.6 54.9,22.8 24.1,12.6 				"/>
			</g>
		</g>
	</g>
	<g>
		<path fill="#FFFFFF" d="M18.8,24.2v1.6h1.8l0.2,1.1h-2v2.7h-1.2v-6.5h3.6v1.1H18.8z"/>
		<path fill="#FFFFFF" d="M24.9,29.7c-1.8,0-3-1.4-3-3.4c0-2,1.2-3.4,3.1-3.4c1.9,0,3,1.4,3,3.4S26.7,29.7,24.9,29.7z M24.9,24
			c-1.1,0-1.8,0.9-1.8,2.3c0,1.4,0.7,2.3,1.8,2.3c1.1,0,1.8-0.9,1.8-2.3C26.7,24.9,26,24,24.9,24z"/>
		<path fill="#FFFFFF" d="M31.2,29.7c-1.6,0-2.6-0.9-2.6-2.6v-4h1.2V27c0,1,0.5,1.6,1.4,1.6c0.9,0,1.4-0.6,1.4-1.6v-3.9h1.2V27
			C33.8,28.7,32.8,29.7,31.2,29.7z"/>
		<path fill="#FFFFFF" d="M39.7,29.4l-1.3,0.2l-1.7-2.5h-0.6v2.5h-1.2v-6.5h2c1.4,0,2.3,0.7,2.3,1.9c0,0.9-0.5,1.5-1.3,1.8
			L39.7,29.4z M36.9,24.1h-0.7v2.1h0.6c0.8,0,1.2-0.4,1.2-1C38.1,24.4,37.6,24.1,36.9,24.1z"/>
		<path fill="#FFFFFF" d="M42.9,24.2v5.4h-1.2v-5.4h-1.9v-1.1h5l0.2,1.1H42.9z"/>
		<path fill="#FFFFFF" d="M49.8,29.6v-2.8h-2.8v2.8h-1.2v-6.5h1.2v2.6h2.8v-2.6h1.2v6.5H49.8z"/>
		<path fill="#FFFFFF" d="M30.1,37.2H29l-1.4-4.7l-1.4,4.7h-1.2l-1.8-6.3l1.3-0.2l1.2,4.6l1.4-4.6h1.2l1.4,4.6l1.2-4.6H32L30.1,37.2
			z"/>
		<path fill="#FFFFFF" d="M36.4,37.3l-0.6-1.7h-2.5l-0.6,1.6h-1.2l2.4-6.5h1.3l2.4,6.3L36.4,37.3z M34.5,32.1l-0.9,2.5h1.8
			L34.5,32.1z"/>
		<path fill="#FFFFFF" d="M38.1,37.2v-6.5h1.2v5.4h2.2l0.2,1.1H38.1z"/>
		<path fill="#FFFFFF" d="M42.2,37.2v-6.5h1.2v5.4h2.2l0.2,1.1H42.2z"/>
		<path fill="#FFFFFF" d="M23.5,44v-5h2.6v0.4H24v1.7h1.7l0.1,0.4H24v1.9h2.2V44H23.5z"/>
		<path fill="#FFFFFF" d="M29.1,44h-0.4l-1.9-4.9l0.5-0.1l1.7,4.4l1.6-4.3h0.5L29.1,44z"/>
		<path fill="#FFFFFF" d="M31.6,44v-5h2.6v0.4h-2.1v1.7h1.7l0.1,0.4h-1.7v1.9h2.2V44H31.6z"/>
		<path fill="#FFFFFF" d="M38.3,44l-2.9-4.2V44h-0.5v-5h0.5l2.8,4v-4h0.5v5H38.3z"/>
		<path fill="#FFFFFF" d="M41.5,39.5V44H41v-4.5h-1.6V39h3.7l0.1,0.4H41.5z"/>
		<path fill="#FFFFFF" d="M44.7,44.1c-0.6,0-1-0.1-1.3-0.3l0.1-0.5c0.3,0.2,0.8,0.4,1.3,0.4c0.6,0,1-0.3,1-0.9c0-0.5-0.2-0.7-1-1.1
			c-0.9-0.4-1.3-0.7-1.3-1.4c0-0.7,0.6-1.2,1.4-1.2c0.5,0,0.8,0.1,1.1,0.3l-0.1,0.5c-0.3-0.2-0.6-0.3-1-0.3c-0.6,0-0.9,0.3-0.9,0.8
			c0,0.5,0.2,0.7,1,1c0.9,0.4,1.3,0.8,1.3,1.5C46.2,43.5,45.5,44.1,44.7,44.1z"/>
	</g>
	<g>
		<g>
			<g>
				<path fill="#2BA8E0" d="M3.2,48.8l-0.3,0.9C2.3,51.5,3.3,53.4,5,54L41.6,66c0.3,0.1,0.7,0.2,1.1,0.2c1.4,0,2.7-0.9,3.2-2.3
					l1.6-4.9l-4.1-1.3l-0.3,0.8c-0.5,1.4-1.8,2.3-3.2,2.3c-0.3,0-0.7-0.1-1.1-0.2L3.2,48.8"/>
			</g>
			<g>
				<path fill="#2BA8E0" d="M65.6,17.4L53.9,53.1c-0.5,1.4-1.8,2.3-3.2,2.3c-0.3,0-0.7-0.1-1.1-0.2l-0.8-0.3L47.5,59l4.9,1.6
					c0.3,0.1,0.7,0.2,1.1,0.2c1.4,0,2.7-0.9,3.2-2.3l12.1-36.6c0.6-1.8-0.4-3.7-2.1-4.3L65.6,17.4"/>
			</g>
			<g>
				<polyline fill="#108FCF" points="44.8,53.6 43.4,57.7 47.5,59 48.8,54.9 44.8,53.6 				"/>
			</g>
			<g>
				<path fill="#2BA8E0" d="M15.4,5.4c-1.4,0-2.7,0.9-3.2,2.3L0.2,44.3c-0.6,1.8,0.4,3.7,2.1,4.3l0.9,0.3L15,13.1
					c0.5-1.4,1.8-2.3,3.2-2.3c0.3,0,0.7,0.1,1.1,0.2l0.8,0.3l1.3-4.1l-4.9-1.6C16.1,5.5,15.8,5.4,15.4,5.4"/>
			</g>
			<g>
				<path fill="#108FCF" d="M18.2,10.8c-1.4,0-2.7,0.9-3.2,2.3L3.2,48.8l35.7,11.8c0.3,0.1,0.7,0.2,1.1,0.2c1.4,0,2.7-0.9,3.2-2.3
					l0.3-0.8l-27.6-9.1C14,48,13,46.1,13.6,44.3l0.3-0.9L13,43.1c-1.8-0.6-2.7-2.5-2.1-4.3L20,11.3L19.2,11
					C18.9,10.9,18.5,10.8,18.2,10.8"/>
			</g>
			<g>
				<path fill="#047ABB" d="M13.9,43.4l-0.3,0.9C13,46.1,14,48,15.8,48.6l27.6,9.1l1.3-4.1L13.9,43.4"/>
			</g>
			<g>
				<path fill="#2BA8E0" d="M26.2,0c-1.4,0-2.7,0.9-3.2,2.3l-1.6,4.9l4.1,1.3l0.3-0.8c0.5-1.4,1.8-2.3,3.2-2.3
					c0.3,0,0.7,0.1,1.1,0.2l35.7,11.8l0.3-0.9c0.6-1.8-0.4-3.7-2.1-4.3L27.2,0.2C26.9,0.1,26.5,0,26.2,0"/>
			</g>
			<g>
				<path fill="#108FCF" d="M28.9,5.4c-1.4,0-2.7,0.9-3.2,2.3l-0.3,0.8l27.6,9.1c1.8,0.6,2.7,2.5,2.1,4.3l-0.3,0.9l0.9,0.3
					c1.8,0.6,2.7,2.5,2.1,4.3l-9.1,27.6l0.8,0.3c0.3,0.1,0.7,0.2,1.1,0.2c1.4,0,2.7-0.9,3.2-2.3l11.8-35.7L29.9,5.6
					C29.6,5.5,29.2,5.4,28.9,5.4"/>
			</g>
			<g>
				<path fill="#047ABB" d="M54.9,22.8L44.8,53.6l4.1,1.3l9.1-27.6c0.6-1.8-0.4-3.7-2.1-4.3L54.9,22.8"/>
			</g>
			<g>
				<polyline fill="#108FCF" points="21.3,7.2 20,11.3 24.1,12.6 25.4,8.5 21.3,7.2 				"/>
			</g>
			<g>
				<path fill="#047ABB" d="M20,11.3l-9.1,27.6c-0.6,1.8,0.4,3.7,2.1,4.3l0.9,0.3l10.2-30.8L20,11.3"/>
			</g>
			<g>
				<path fill="#047ABB" d="M25.4,8.5l-1.3,4.1l30.8,10.2l0.3-0.9c0.6-1.8-0.4-3.7-2.1-4.3L25.4,8.5"/>
			</g>
			<g>
				<polyline fill="#0169A9" points="24.1,12.6 13.9,43.4 44.8,53.6 54.9,22.8 24.1,12.6 				"/>
			</g>
		</g>
	</g>
	<g>
		<path fill="#FFFFFF" d="M18.8,24.2v1.6h1.8l0.2,1.1h-2v2.7h-1.2v-6.5h3.6v1.1H18.8z"/>
		<path fill="#FFFFFF" d="M24.9,29.7c-1.8,0-3-1.4-3-3.4c0-2,1.2-3.4,3.1-3.4c1.9,0,3,1.4,3,3.4S26.7,29.7,24.9,29.7z M24.9,24
			c-1.1,0-1.8,0.9-1.8,2.3c0,1.4,0.7,2.3,1.8,2.3c1.1,0,1.8-0.9,1.8-2.3C26.7,24.9,26,24,24.9,24z"/>
		<path fill="#FFFFFF" d="M31.2,29.7c-1.6,0-2.6-0.9-2.6-2.6v-4h1.2V27c0,1,0.5,1.6,1.4,1.6c0.9,0,1.4-0.6,1.4-1.6v-3.9h1.2V27
			C33.8,28.7,32.8,29.7,31.2,29.7z"/>
		<path fill="#FFFFFF" d="M39.7,29.4l-1.3,0.2l-1.7-2.5h-0.6v2.5h-1.2v-6.5h2c1.4,0,2.3,0.7,2.3,1.9c0,0.9-0.5,1.5-1.3,1.8
			L39.7,29.4z M36.9,24.1h-0.7v2.1h0.6c0.8,0,1.2-0.4,1.2-1C38.1,24.4,37.6,24.1,36.9,24.1z"/>
		<path fill="#FFFFFF" d="M42.9,24.2v5.4h-1.2v-5.4h-1.9v-1.1h5l0.2,1.1H42.9z"/>
		<path fill="#FFFFFF" d="M49.8,29.6v-2.8h-2.8v2.8h-1.2v-6.5h1.2v2.6h2.8v-2.6h1.2v6.5H49.8z"/>
		<path fill="#FFFFFF" d="M30.1,37.2H29l-1.4-4.7l-1.4,4.7h-1.2l-1.8-6.3l1.3-0.2l1.2,4.6l1.4-4.6h1.2l1.4,4.6l1.2-4.6H32L30.1,37.2
			z"/>
		<path fill="#FFFFFF" d="M36.4,37.3l-0.6-1.7h-2.5l-0.6,1.6h-1.2l2.4-6.5h1.3l2.4,6.3L36.4,37.3z M34.5,32.1l-0.9,2.5h1.8
			L34.5,32.1z"/>
		<path fill="#FFFFFF" d="M38.1,37.2v-6.5h1.2v5.4h2.2l0.2,1.1H38.1z"/>
		<path fill="#FFFFFF" d="M42.2,37.2v-6.5h1.2v5.4h2.2l0.2,1.1H42.2z"/>
		<path fill="#FFFFFF" d="M23.5,44v-5h2.6v0.4H24v1.7h1.7l0.1,0.4H24v1.9h2.2V44H23.5z"/>
		<path fill="#FFFFFF" d="M29.1,44h-0.4l-1.9-4.9l0.5-0.1l1.7,4.4l1.6-4.3h0.5L29.1,44z"/>
		<path fill="#FFFFFF" d="M31.6,44v-5h2.6v0.4h-2.1v1.7h1.7l0.1,0.4h-1.7v1.9h2.2V44H31.6z"/>
		<path fill="#FFFFFF" d="M38.3,44l-2.9-4.2V44h-0.5v-5h0.5l2.8,4v-4h0.5v5H38.3z"/>
		<path fill="#FFFFFF" d="M41.5,39.5V44H41v-4.5h-1.6V39h3.7l0.1,0.4H41.5z"/>
		<path fill="#FFFFFF" d="M44.7,44.1c-0.6,0-1-0.1-1.3-0.3l0.1-0.5c0.3,0.2,0.8,0.4,1.3,0.4c0.6,0,1-0.3,1-0.9c0-0.5-0.2-0.7-1-1.1
			c-0.9-0.4-1.3-0.7-1.3-1.4c0-0.7,0.6-1.2,1.4-1.2c0.5,0,0.8,0.1,1.1,0.3l-0.1,0.5c-0.3-0.2-0.6-0.3-1-0.3c-0.6,0-0.9,0.3-0.9,0.8
			c0,0.5,0.2,0.7,1,1c0.9,0.4,1.3,0.8,1.3,1.5C46.2,43.5,45.5,44.1,44.7,44.1z"/>
	</g>
</g>
</svg>
