<?xml version="1.0" encoding="UTF-8" standalone="no"?>
<!-- Created with Inkscape (http://www.inkscape.org/) -->

<svg
   xmlns:dc="http://purl.org/dc/elements/1.1/"
   xmlns:cc="http://creativecommons.org/ns#"
   xmlns:rdf="http://www.w3.org/1999/02/22-rdf-syntax-ns#"
   xmlns:svg="http://www.w3.org/2000/svg"
   xmlns="http://www.w3.org/2000/svg"
   version="1.1"
   width="100%"
   height="100%"
   viewBox="0 0 68.95042 66.200003"
   id="Layer_1"
   xml:space="preserve"><metadata
     id="metadata189"><rdf:RDF><cc:Work
         rdf:about=""><dc:format>image/svg+xml</dc:format><dc:type
           rdf:resource="http://purl.org/dc/dcmitype/StillImage" /><dc:title></dc:title></cc:Work></rdf:RDF></metadata><defs
     id="defs187" /><g
     transform="translate(-0.02479155,0)"
     id="g3"><g
       id="g5"><g
         id="g7"><g
           id="g9"><path
             d="M 3.2,48.8 2.9,49.7 C 2.3,51.5 3.3,53.4 5,54 l 36.6,12 c 0.3,0.1 0.7,0.2 1.1,0.2 1.4,0 2.7,-0.9 3.2,-2.3 l 1.6,-4.9 -4.1,-1.3 -0.3,0.8 c -0.5,1.4 -1.8,2.3 -3.2,2.3 -0.3,0 -0.7,-0.1 -1.1,-0.2 L 3.2,48.8"
             id="path11"
             style="fill:#2ba8e0" /></g><g
           id="g13"><path
             d="M 65.6,17.4 53.9,53.1 c -0.5,1.4 -1.8,2.3 -3.2,2.3 -0.3,0 -0.7,-0.1 -1.1,-0.2 l -0.8,-0.3 -1.3,4.1 4.9,1.6 c 0.3,0.1 0.7,0.2 1.1,0.2 1.4,0 2.7,-0.9 3.2,-2.3 L 68.8,21.9 c 0.6,-1.8 -0.4,-3.7 -2.1,-4.3 l -1.1,-0.2"
             id="path15"
             style="fill:#2ba8e0" /></g><g
           id="g17"><polyline
             points="44.8,53.6 43.4,57.7 47.5,59 48.8,54.9 44.8,53.6     "
             id="polyline19"
             style="fill:#108fcf" /></g><g
           id="g21"><path
             d="m 15.4,5.4 c -1.4,0 -2.7,0.9 -3.2,2.3 l -12,36.6 c -0.6,1.8 0.4,3.7 2.1,4.3 L 3.2,48.9 15,13.1 c 0.5,-1.4 1.8,-2.3 3.2,-2.3 0.3,0 0.7,0.1 1.1,0.2 l 0.8,0.3 1.3,-4.1 -4.9,-1.6 C 16.1,5.5 15.8,5.4 15.4,5.4"
             id="path23"
             style="fill:#2ba8e0" /></g><g
           id="g25"><path
             d="m 18.2,10.8 c -1.4,0 -2.7,0.9 -3.2,2.3 L 3.2,48.8 38.9,60.6 c 0.3,0.1 0.7,0.2 1.1,0.2 1.4,0 2.7,-0.9 3.2,-2.3 L 43.5,57.7 15.9,48.6 C 14,48 13,46.1 13.6,44.3 L 13.9,43.4 13,43.1 C 11.2,42.5 10.3,40.6 10.9,38.8 L 20,11.3 19.2,11 c -0.3,-0.1 -0.7,-0.2 -1,-0.2"
             id="path27"
             style="fill:#108fcf" /></g><g
           id="g29"><path
             d="m 13.9,43.4 -0.3,0.9 C 13,46.1 14,48 15.8,48.6 l 27.6,9.1 1.3,-4.1 -30.8,-10.2"
             id="path31"
             style="fill:#047abb" /></g><g
           id="g33"><path
             d="M 26.2,0 C 24.8,0 23.5,0.9 23,2.3 l -1.6,4.9 4.1,1.3 0.3,-0.8 c 0.5,-1.4 1.8,-2.3 3.2,-2.3 0.3,0 0.7,0.1 1.1,0.2 l 35.7,11.8 0.3,-0.9 C 66.7,14.7 65.7,12.8 64,12.2 L 27.2,0.2 C 26.9,0.1 26.5,0 26.2,0"
             id="path35"
             style="fill:#2ba8e0" /></g><g
           id="g37"><path
             d="m 28.9,5.4 c -1.4,0 -2.7,0.9 -3.2,2.3 L 25.4,8.5 53,17.6 c 1.8,0.6 2.7,2.5 2.1,4.3 l -0.3,0.9 0.9,0.3 c 1.8,0.6 2.7,2.5 2.1,4.3 l -9.1,27.6 0.8,0.3 c 0.3,0.1 0.7,0.2 1.1,0.2 1.4,0 2.7,-0.9 3.2,-2.3 L 65.6,17.5 29.9,5.6 C 29.6,5.5 29.2,5.4 28.9,5.4"
             id="path39"
             style="fill:#108fcf" /></g><g
           id="g41"><path
             d="M 54.9,22.8 44.8,53.6 48.9,54.9 58,27.3 C 58.6,25.5 57.6,23.6 55.9,23 l -1,-0.2"
             id="path43"
             style="fill:#047abb" /></g><g
           id="g45"><polyline
             points="21.3,7.2 20,11.3 24.1,12.6 25.4,8.5 21.3,7.2     "
             id="polyline47"
             style="fill:#108fcf" /></g><g
           id="g49"><path
             d="m 20,11.3 -9.1,27.6 c -0.6,1.8 0.4,3.7 2.1,4.3 L 13.9,43.5 24.1,12.7 20,11.3"
             id="path51"
             style="fill:#047abb" /></g><g
           id="g53"><path
             d="m 25.4,8.5 -1.3,4.1 30.8,10.2 0.3,-0.9 c 0.6,-1.8 -0.4,-3.7 -2.1,-4.3 L 25.4,8.5"
             id="path55"
             style="fill:#047abb" /></g><g
           id="g57"><polyline
             points="24.1,12.6 13.9,43.4 44.8,53.6 54.9,22.8 24.1,12.6     "
             id="polyline59"
             style="fill:#036cae" /></g></g></g><g
       id="g61"><path
         d="m 18.8,24.2 v 1.6 h 1.8 l 0.2,1.1 h -2 v 2.7 h -1.2 v -6.5 h 3.6 v 1.1 h -2.4 z"
         id="path63"
         style="fill:#ffffff" /><path
         d="m 24.9,29.7 c -1.8,0 -3,-1.4 -3,-3.4 0,-2 1.2,-3.4 3.1,-3.4 1.9,0 3,1.4 3,3.4 0,2 -1.3,3.4 -3.1,3.4 z m 0,-5.7 c -1.1,0 -1.8,0.9 -1.8,2.3 0,1.4 0.7,2.3 1.8,2.3 1.1,0 1.8,-0.9 1.8,-2.3 C 26.7,24.9 26,24 24.9,24 z"
         id="path65"
         style="fill:#ffffff" /><path
         d="m 31.2,29.7 c -1.6,0 -2.6,-0.9 -2.6,-2.6 v -4 h 1.2 V 27 c 0,1 0.5,1.6 1.4,1.6 0.9,0 1.4,-0.6 1.4,-1.6 v -3.9 h 1.2 V 27 c 0,1.7 -1,2.7 -2.6,2.7 z"
         id="path67"
         style="fill:#ffffff" /><path
         d="m 39.7,29.4 -1.3,0.2 -1.7,-2.5 h -0.6 v 2.5 h -1.2 v -6.5 h 2 c 1.4,0 2.3,0.7 2.3,1.9 0,0.9 -0.5,1.5 -1.3,1.8 l 1.8,2.6 z m -2.8,-5.3 h -0.7 v 2.1 h 0.6 c 0.8,0 1.2,-0.4 1.2,-1 0.1,-0.8 -0.4,-1.1 -1.1,-1.1 z"
         id="path69"
         style="fill:#ffffff" /><path
         d="m 42.9,24.2 v 5.4 h -1.2 v -5.4 h -1.9 v -1.1 h 5 l 0.2,1.1 h -2.1 z"
         id="path71"
         style="fill:#ffffff" /><path
         d="M 49.8,29.6 V 26.8 H 47 v 2.8 H 45.8 V 23.1 H 47 v 2.6 h 2.8 V 23.1 H 51 v 6.5 h -1.2 z"
         id="path73"
         style="fill:#ffffff" /><path
         d="M 30.1,37.2 H 29 l -1.4,-4.7 -1.4,4.7 H 25 l -1.8,-6.3 1.3,-0.2 1.2,4.6 1.4,-4.6 h 1.2 l 1.4,4.6 1.2,-4.6 H 32 l -1.9,6.5 z"
         id="path75"
         style="fill:#ffffff" /><path
         d="m 36.4,37.3 -0.6,-1.7 h -2.5 l -0.6,1.6 h -1.2 l 2.4,-6.5 h 1.3 l 2.4,6.3 -1.2,0.3 z m -1.9,-5.2 -0.9,2.5 h 1.8 l -0.9,-2.5 z"
         id="path77"
         style="fill:#ffffff" /><path
         d="m 38.1,37.2 v -6.5 h 1.2 v 5.4 h 2.2 l 0.2,1.1 h -3.6 z"
         id="path79"
         style="fill:#ffffff" /><path
         d="m 42.2,37.2 v -6.5 h 1.2 v 5.4 h 2.2 l 0.2,1.1 h -3.6 z"
         id="path81"
         style="fill:#ffffff" /><path
         d="m 23.5,44 v -5 h 2.6 v 0.4 H 24 v 1.7 h 1.7 l 0.1,0.4 H 24 v 1.9 h 2.2 V 44 h -2.7 z"
         id="path83"
         style="fill:#ffffff" /><path
         d="m 29.1,44 h -0.4 l -1.9,-4.9 0.5,-0.1 1.7,4.4 1.6,-4.3 h 0.5 l -2,4.9 z"
         id="path85"
         style="fill:#ffffff" /><path
         d="m 31.6,44 v -5 h 2.6 v 0.4 h -2.1 v 1.7 h 1.7 l 0.1,0.4 h -1.7 v 1.9 h 2.2 V 44 h -2.8 z"
         id="path87"
         style="fill:#ffffff" /><path
         d="M 38.3,44 35.4,39.8 V 44 h -0.5 v -5 h 0.5 l 2.8,4 v -4 h 0.5 v 5 h -0.4 z"
         id="path89"
         style="fill:#ffffff" /><path
         d="M 41.5,39.5 V 44 H 41 V 39.5 H 39.4 V 39 h 3.7 l 0.1,0.4 h -1.7 z"
         id="path91"
         style="fill:#ffffff" /><path
         d="m 44.7,44.1 c -0.6,0 -1,-0.1 -1.3,-0.3 l 0.1,-0.5 c 0.3,0.2 0.8,0.4 1.3,0.4 0.6,0 1,-0.3 1,-0.9 0,-0.5 -0.2,-0.7 -1,-1.1 -0.9,-0.4 -1.3,-0.7 -1.3,-1.4 0,-0.7 0.6,-1.2 1.4,-1.2 0.5,0 0.8,0.1 1.1,0.3 l -0.1,0.5 c -0.3,-0.2 -0.6,-0.3 -1,-0.3 -0.6,0 -0.9,0.3 -0.9,0.8 0,0.5 0.2,0.7 1,1 0.9,0.4 1.3,0.8 1.3,1.5 -0.1,0.6 -0.8,1.2 -1.6,1.2 z"
         id="path93"
         style="fill:#ffffff" /></g><g
       id="g95"><g
         id="g97"><g
           id="g99"><path
             d="M 3.2,48.8 2.9,49.7 C 2.3,51.5 3.3,53.4 5,54 l 36.6,12 c 0.3,0.1 0.7,0.2 1.1,0.2 1.4,0 2.7,-0.9 3.2,-2.3 l 1.6,-4.9 -4.1,-1.3 -0.3,0.8 c -0.5,1.4 -1.8,2.3 -3.2,2.3 -0.3,0 -0.7,-0.1 -1.1,-0.2 L 3.2,48.8"
             id="path101"
             style="fill:#2ba8e0" /></g><g
           id="g103"><path
             d="M 65.6,17.4 53.9,53.1 c -0.5,1.4 -1.8,2.3 -3.2,2.3 -0.3,0 -0.7,-0.1 -1.1,-0.2 l -0.8,-0.3 -1.3,4.1 4.9,1.6 c 0.3,0.1 0.7,0.2 1.1,0.2 1.4,0 2.7,-0.9 3.2,-2.3 L 68.8,21.9 c 0.6,-1.8 -0.4,-3.7 -2.1,-4.3 l -1.1,-0.2"
             id="path105"
             style="fill:#2ba8e0" /></g><g
           id="g107"><polyline
             points="44.8,53.6 43.4,57.7 47.5,59 48.8,54.9 44.8,53.6     "
             id="polyline109"
             style="fill:#108fcf" /></g><g
           id="g111"><path
             d="m 15.4,5.4 c -1.4,0 -2.7,0.9 -3.2,2.3 l -12,36.6 c -0.6,1.8 0.4,3.7 2.1,4.3 L 3.2,48.9 15,13.1 c 0.5,-1.4 1.8,-2.3 3.2,-2.3 0.3,0 0.7,0.1 1.1,0.2 l 0.8,0.3 1.3,-4.1 -4.9,-1.6 C 16.1,5.5 15.8,5.4 15.4,5.4"
             id="path113"
             style="fill:#2ba8e0" /></g><g
           id="g115"><path
             d="m 18.2,10.8 c -1.4,0 -2.7,0.9 -3.2,2.3 L 3.2,48.8 38.9,60.6 c 0.3,0.1 0.7,0.2 1.1,0.2 1.4,0 2.7,-0.9 3.2,-2.3 L 43.5,57.7 15.9,48.6 C 14,48 13,46.1 13.6,44.3 L 13.9,43.4 13,43.1 C 11.2,42.5 10.3,40.6 10.9,38.8 L 20,11.3 19.2,11 c -0.3,-0.1 -0.7,-0.2 -1,-0.2"
             id="path117"
             style="fill:#108fcf" /></g><g
           id="g119"><path
             d="m 13.9,43.4 -0.3,0.9 C 13,46.1 14,48 15.8,48.6 l 27.6,9.1 1.3,-4.1 -30.8,-10.2"
             id="path121"
             style="fill:#047abb" /></g><g
           id="g123"><path
             d="M 26.2,0 C 24.8,0 23.5,0.9 23,2.3 l -1.6,4.9 4.1,1.3 0.3,-0.8 c 0.5,-1.4 1.8,-2.3 3.2,-2.3 0.3,0 0.7,0.1 1.1,0.2 l 35.7,11.8 0.3,-0.9 C 66.7,14.7 65.7,12.8 64,12.2 L 27.2,0.2 C 26.9,0.1 26.5,0 26.2,0"
             id="path125"
             style="fill:#2ba8e0" /></g><g
           id="g127"><path
             d="m 28.9,5.4 c -1.4,0 -2.7,0.9 -3.2,2.3 L 25.4,8.5 53,17.6 c 1.8,0.6 2.7,2.5 2.1,4.3 l -0.3,0.9 0.9,0.3 c 1.8,0.6 2.7,2.5 2.1,4.3 l -9.1,27.6 0.8,0.3 c 0.3,0.1 0.7,0.2 1.1,0.2 1.4,0 2.7,-0.9 3.2,-2.3 L 65.6,17.5 29.9,5.6 C 29.6,5.5 29.2,5.4 28.9,5.4"
             id="path129"
             style="fill:#108fcf" /></g><g
           id="g131"><path
             d="M 54.9,22.8 44.8,53.6 48.9,54.9 58,27.3 C 58.6,25.5 57.6,23.6 55.9,23 l -1,-0.2"
             id="path133"
             style="fill:#047abb" /></g><g
           id="g135"><polyline
             points="21.3,7.2 20,11.3 24.1,12.6 25.4,8.5 21.3,7.2     "
             id="polyline137"
             style="fill:#108fcf" /></g><g
           id="g139"><path
             d="m 20,11.3 -9.1,27.6 c -0.6,1.8 0.4,3.7 2.1,4.3 L 13.9,43.5 24.1,12.7 20,11.3"
             id="path141"
             style="fill:#047abb" /></g><g
           id="g143"><path
             d="m 25.4,8.5 -1.3,4.1 30.8,10.2 0.3,-0.9 c 0.6,-1.8 -0.4,-3.7 -2.1,-4.3 L 25.4,8.5"
             id="path145"
             style="fill:#047abb" /></g><g
           id="g147"><polyline
             points="24.1,12.6 13.9,43.4 44.8,53.6 54.9,22.8 24.1,12.6     "
             id="polyline149"
             style="fill:#0169a9" /></g></g></g><g
       id="g151"><path
         d="m 18.8,24.2 v 1.6 h 1.8 l 0.2,1.1 h -2 v 2.7 h -1.2 v -6.5 h 3.6 v 1.1 h -2.4 z"
         id="path153"
         style="fill:#ffffff" /><path
         d="m 24.9,29.7 c -1.8,0 -3,-1.4 -3,-3.4 0,-2 1.2,-3.4 3.1,-3.4 1.9,0 3,1.4 3,3.4 0,2 -1.3,3.4 -3.1,3.4 z m 0,-5.7 c -1.1,0 -1.8,0.9 -1.8,2.3 0,1.4 0.7,2.3 1.8,2.3 1.1,0 1.8,-0.9 1.8,-2.3 C 26.7,24.9 26,24 24.9,24 z"
         id="path155"
         style="fill:#ffffff" /><path
         d="m 31.2,29.7 c -1.6,0 -2.6,-0.9 -2.6,-2.6 v -4 h 1.2 V 27 c 0,1 0.5,1.6 1.4,1.6 0.9,0 1.4,-0.6 1.4,-1.6 v -3.9 h 1.2 V 27 c 0,1.7 -1,2.7 -2.6,2.7 z"
         id="path157"
         style="fill:#ffffff" /><path
         d="m 39.7,29.4 -1.3,0.2 -1.7,-2.5 h -0.6 v 2.5 h -1.2 v -6.5 h 2 c 1.4,0 2.3,0.7 2.3,1.9 0,0.9 -0.5,1.5 -1.3,1.8 l 1.8,2.6 z m -2.8,-5.3 h -0.7 v 2.1 h 0.6 c 0.8,0 1.2,-0.4 1.2,-1 0.1,-0.8 -0.4,-1.1 -1.1,-1.1 z"
         id="path159"
         style="fill:#ffffff" /><path
         d="m 42.9,24.2 v 5.4 h -1.2 v -5.4 h -1.9 v -1.1 h 5 l 0.2,1.1 h -2.1 z"
         id="path161"
         style="fill:#ffffff" /><path
         d="M 49.8,29.6 V 26.8 H 47 v 2.8 H 45.8 V 23.1 H 47 v 2.6 h 2.8 V 23.1 H 51 v 6.5 h -1.2 z"
         id="path163"
         style="fill:#ffffff" /><path
         d="M 30.1,37.2 H 29 l -1.4,-4.7 -1.4,4.7 H 25 l -1.8,-6.3 1.3,-0.2 1.2,4.6 1.4,-4.6 h 1.2 l 1.4,4.6 1.2,-4.6 H 32 l -1.9,6.5 z"
         id="path165"
         style="fill:#ffffff" /><path
         d="m 36.4,37.3 -0.6,-1.7 h -2.5 l -0.6,1.6 h -1.2 l 2.4,-6.5 h 1.3 l 2.4,6.3 -1.2,0.3 z m -1.9,-5.2 -0.9,2.5 h 1.8 l -0.9,-2.5 z"
         id="path167"
         style="fill:#ffffff" /><path
         d="m 38.1,37.2 v -6.5 h 1.2 v 5.4 h 2.2 l 0.2,1.1 h -3.6 z"
         id="path169"
         style="fill:#ffffff" /><path
         d="m 42.2,37.2 v -6.5 h 1.2 v 5.4 h 2.2 l 0.2,1.1 h -3.6 z"
         id="path171"
         style="fill:#ffffff" /><path
         d="m 23.5,44 v -5 h 2.6 v 0.4 H 24 v 1.7 h 1.7 l 0.1,0.4 H 24 v 1.9 h 2.2 V 44 h -2.7 z"
         id="path173"
         style="fill:#ffffff" /><path
         d="m 29.1,44 h -0.4 l -1.9,-4.9 0.5,-0.1 1.7,4.4 1.6,-4.3 h 0.5 l -2,4.9 z"
         id="path175"
         style="fill:#ffffff" /><path
         d="m 31.6,44 v -5 h 2.6 v 0.4 h -2.1 v 1.7 h 1.7 l 0.1,0.4 h -1.7 v 1.9 h 2.2 V 44 h -2.8 z"
         id="path177"
         style="fill:#ffffff" /><path
         d="M 38.3,44 35.4,39.8 V 44 h -0.5 v -5 h 0.5 l 2.8,4 v -4 h 0.5 v 5 h -0.4 z"
         id="path179"
         style="fill:#ffffff" /><path
         d="M 41.5,39.5 V 44 H 41 V 39.5 H 39.4 V 39 h 3.7 l 0.1,0.4 h -1.7 z"
         id="path181"
         style="fill:#ffffff" /><path
         d="m 44.7,44.1 c -0.6,0 -1,-0.1 -1.3,-0.3 l 0.1,-0.5 c 0.3,0.2 0.8,0.4 1.3,0.4 0.6,0 1,-0.3 1,-0.9 0,-0.5 -0.2,-0.7 -1,-1.1 -0.9,-0.4 -1.3,-0.7 -1.3,-1.4 0,-0.7 0.6,-1.2 1.4,-1.2 0.5,0 0.8,0.1 1.1,0.3 l -0.1,0.5 c -0.3,-0.2 -0.6,-0.3 -1,-0.3 -0.6,0 -0.9,0.3 -0.9,0.8 0,0.5 0.2,0.7 1,1 0.9,0.4 1.3,0.8 1.3,1.5 -0.1,0.6 -0.8,1.2 -1.6,1.2 z"
         id="path183"
         style="fill:#ffffff" /></g></g></svg>
