<?xml version="1.0" encoding="utf-8"?>
<!-- Generator: Adobe Illustrator 18.0.0, SVG Export Plug-In . SVG Version: 6.00 Build 0)  -->
<!DOCTYPE svg PUBLIC "-//W3C//DTD SVG 1.1//EN" "http://www.w3.org/Graphics/SVG/1.1/DTD/svg11.dtd">
<svg version="1.1" id="Capa_1" xmlns="http://www.w3.org/2000/svg" xmlns:xlink="http://www.w3.org/1999/xlink" x="0px" y="0px"
	 viewBox="36.05 36.93 51.75 50" enable-background="new 36.05 36.93 51.75 50" xml:space="preserve">
<path d="M53.5,65.14l6.02,6.02l-11.9,11.91l-6.02-6.02L53.5,65.14z M66.75,51.89l-3.29,3.29l6.02,6.02l3.29-3.29L66.75,51.89z
	 M75.64,36.93h-6.43l-3.93,3.96v6.43l12.06,12.13h6.43l4.03-4v-6.43L75.64,36.93z M71.91,67.27L55.62,50.97
	c0.9-2.88,0.49-6.14-1.4-8.82c-2.19-3.1-5.32-4.92-9.4-4.14l4.77,6.76l-2.19,5.1l-5.54,0.36l-4.84-6.86c-1.35,3-1.44,7.18,0.8,10.36
	c2.74,3.89,7.77,5.2,12.01,3.49l15.76,15.76c-1.28,3.04-1.03,6.65,0.97,9.58c2.15,3.13,5.75,4.66,9.27,4.32l-4.68-6.83l2.26-5.07
	l5.54-0.28l4.75,6.92c1.72-3.2,1.64-7.23-0.56-10.44C80.6,67.48,76,66.01,71.91,67.27z"/>
</svg>
