<?xml version="1.0" encoding="utf-8"?>
<!-- Generator: Adobe Illustrator 18.0.0, SVG Export Plug-In . SVG Version: 6.00 Build 0)  -->
<!DOCTYPE svg PUBLIC "-//W3C//DTD SVG 1.1//EN" "http://www.w3.org/Graphics/SVG/1.1/DTD/svg11.dtd">
<svg version="1.1" id="Layer_1" xmlns="http://www.w3.org/2000/svg" xmlns:xlink="http://www.w3.org/1999/xlink" x="0px" y="0px"
	 viewBox="12.83 41.27 100.34 50" enable-background="new 12.83 41.27 100.34 50" xml:space="preserve" preserveAspectRatio="xMinYMid slice">
<path d="M112.99,46.92c-1.54,1.79-3.32,1.64-5.07,0.99c-2.43-0.9-4.83-1.91-7.21-2.94c-5.86-2.54-11.91-4.08-18.37-3.61
	c-4.94,0.36-9.76,1.31-14.41,3c-1.66,0.6-3.3,0.95-4.93,1.05c-1.64-0.1-3.28-0.44-4.93-1.05c-4.64-1.69-9.47-2.65-14.41-3
	c-6.46-0.47-12.51,1.07-18.37,3.61c-2.38,1.03-4.77,2.05-7.21,2.94c-1.75,0.65-3.53,0.8-5.07-0.99c-0.59,9.42,0.18,18.4,3.93,26.94
	c2.2,5,5.3,9.33,9.82,12.46c7.31,5.07,15.29,6.31,23.73,3.44c1.86-0.63,3.54-1.9,5.21-3.01c2.59-1.72,5.04-2.92,7.3-2.96
	c2.26,0.05,4.71,1.24,7.3,2.96c1.67,1.11,3.35,2.38,5.21,3.01c8.45,2.87,16.42,1.64,23.73-3.44c4.52-3.13,7.62-7.46,9.82-12.46
	C112.81,65.31,113.58,56.34,112.99,46.92z M105.51,50.12c1.44,0,2.61,1.17,2.61,2.62c0,1.45-1.17,2.61-2.61,2.61
	c-1.45,0-2.61-1.17-2.61-2.61C102.89,51.29,104.06,50.12,105.51,50.12z M97.63,47.58c1.45,0,2.62,1.17,2.62,2.62
	c0,1.45-1.17,2.61-2.62,2.61c-1.44,0-2.61-1.17-2.61-2.61C95.01,48.75,96.18,47.58,97.63,47.58z M89.54,46.38
	c1.44,0,2.62,1.17,2.62,2.61c0,1.45-1.17,2.62-2.62,2.62c-1.45,0-2.61-1.17-2.61-2.62C86.93,47.55,88.1,46.38,89.54,46.38z
	 M85.15,58.06c8.27-4.32,18.91-0.29,18.91-0.29s-1.85,12.81-10.13,17.12C85.66,79.21,74.1,73.4,74.1,73.4S76.88,62.38,85.15,58.06z
	 M81.33,46.96c1.45,0,2.62,1.17,2.62,2.61c0,1.45-1.17,2.62-2.62,2.62c-1.44,0-2.61-1.17-2.61-2.62
	C78.72,48.13,79.89,46.96,81.33,46.96z M73.6,49.81c1.44,0,2.61,1.17,2.61,2.61s-1.17,2.62-2.61,2.62c-1.45,0-2.61-1.17-2.61-2.62
	S72.15,49.81,73.6,49.81z M62.77,50.65c2.12,0,3.84,1.72,3.84,3.84c0,2.12-1.72,3.84-3.84,3.84s-3.84-1.72-3.84-3.84
	C58.93,52.37,60.65,50.65,62.77,50.65z M52.63,49.84c1.45,0,2.61,1.17,2.61,2.61s-1.17,2.62-2.61,2.62s-2.61-1.17-2.61-2.62
	S51.18,49.84,52.63,49.84z M44.89,46.99c1.44,0,2.61,1.17,2.61,2.61c0,1.45-1.17,2.62-2.61,2.62c-1.45,0-2.62-1.17-2.62-2.62
	C42.28,48.16,43.45,46.99,44.89,46.99z M36.68,46.4c1.45,0,2.61,1.17,2.61,2.61c0,1.45-1.17,2.62-2.61,2.62
	c-1.44,0-2.62-1.17-2.62-2.62C34.07,47.57,35.24,46.4,36.68,46.4z M28.6,47.6c1.44,0,2.61,1.17,2.61,2.62
	c0,1.45-1.17,2.61-2.61,2.61c-1.45,0-2.62-1.17-2.62-2.61C25.98,48.78,27.15,47.6,28.6,47.6z M40.85,58.06
	C49.12,62.38,51.9,73.4,51.9,73.4s-11.56,5.81-19.84,1.49c-8.28-4.32-10.13-17.12-10.13-17.12S32.57,53.74,40.85,58.06z
	 M20.72,50.15c1.45,0,2.61,1.17,2.61,2.62c0,1.45-1.17,2.61-2.61,2.61s-2.61-1.17-2.61-2.61C18.1,51.32,19.27,50.15,20.72,50.15z
	 M106.67,73.6c-0.12,0.78-0.35,1.53-0.51,2.04c-1.08,3.36-4.03,5.63-6.44,7.46c-0.3,1.05-0.86,1.97-1.63,2.67
	c-2.02,1.82-5.17,2.16-7.33,2.35c-0.99,1.05-2.4,1.58-4.18,1.58c-2.3,0-4.59-0.88-5.86-1.47c-0.07,0.03-0.14,0.07-0.22,0.1
	c-0.46,0.19-0.95,0.28-1.44,0.28c-2.4,0-4.62-2.24-6.07-4.12c-1.14-1.48-2.07-3.11-2.97-4.68c-0.32-0.56-0.65-1.13-0.99-1.7
	l0.58,3.62c0.05,0.33-0.08,0.66-0.35,0.86c-0.26,0.19-0.62,0.23-0.92,0.1c-1.75-0.82-3.49-1.24-5.17-1.24
	c-3.23,0-5.18,1.55-5.2,1.56c-0.27,0.23-0.69,0.27-1.01,0.09c-0.33-0.18-0.51-0.54-0.46-0.91l0.5-3.74c-0.24,0.4-0.47,0.8-0.69,1.2
	c-0.9,1.57-1.83,3.2-2.97,4.68c-1.45,1.88-3.67,4.12-6.07,4.12c-0.49,0-0.98-0.09-1.44-0.28c-0.02-0.01-0.04-0.02-0.05-0.02
	c-1.26,0.58-3.53,1.45-5.8,1.45c-1.78,0-3.19-0.53-4.18-1.58c-2.16-0.2-5.31-0.53-7.33-2.35c-0.72-0.65-1.27-1.5-1.58-2.46
	c-2.65-2.01-5.62-4.29-6.71-7.67c-0.16-0.5-0.39-1.25-0.51-2.04c-1.19-1.47-5.87-7.74-1.92-11.21c0.51-0.45,1.19-0.69,1.91-0.69
	c0.94,0,1.81,0.43,2.32,1.14c0.74,1.04,1.22,2.8-0.74,5.31c-0.39,0.49-1.17,0.37-1.45-0.2c-0.16-0.33-0.12-0.7,0.1-0.99
	c0.48-0.61,1.12-2.35,0.74-3.12c-0.09-0.18-0.32-0.42-0.97-0.35c-0.47,0.05-0.85,0.28-1.14,0.66c-0.42,0.57-0.59,1.48-0.42,2.3
	c0.29,1.47,0.92,2.99,1.82,4.43c0.28-0.57,0.73-0.99,1.36-1.25c0.44-0.18,0.9-0.28,1.38-0.28c1.83,0,3.69,1.41,4.24,3.21
	c0.44,1.44-0.06,2.77-1.37,3.66c-0.49,0.33-1.15,0.06-1.32-0.5c-0.12-0.39,0.02-0.8,0.36-1.03c0.65-0.44,0.89-0.95,0.71-1.53
	c-0.3-0.98-1.73-1.97-2.84-1.97c-0.37,0-0.64,0.11-0.82,0.33c-0.29,0.36-0.35,1.03-0.15,1.94c0.65,3.08,2.53,5.22,5.18,7.37
	c0.09-0.94,0.39-1.82,0.9-2.58c0.68-1.03,1.71-1.59,2.91-1.59c1.42,0,2.73,0.82,3.2,1.98c0.26,0.65,0.47,1.96-1.05,3.43
	c-0.46,0.44-1.24,0.23-1.47-0.34c-0.13-0.33-0.05-0.69,0.21-0.95c0.55-0.53,0.81-1.25,0.61-1.74c-0.18-0.47-0.74-0.58-1.17-0.58
	c0,0,0,0,0,0c-0.64,0-1.15,0.21-1.54,0.62c-0.55,0.57-0.85,1.5-0.82,2.51c0.11,3.21,3.24,4.19,6.24,4.6
	c-0.1-0.28-0.19-0.57-0.25-0.86c-0.35-1.57,0.23-3.92,1.28-5.23c1.18-1.47,2.79-1.49,4.2,0.03c0.25,0.27,0.31,0.64,0.17,0.97
	c-0.25,0.57-1.04,0.74-1.47,0.28c-0.22-0.24-0.55-0.52-0.9-0.52c-0.65,0-1.22,0.98-1.42,1.91c-0.25,1.14-0.32,2.73,0.76,3.89
	l0.13,0.14c0.02,0.02,0.04,0.05,0.06,0.07c0.87,0.79,1.87,1.17,3.07,1.17c1.34,0,2.75-0.5,3.83-0.97c-1.54-1.77-1.53-4.53-0.81-6.51
	c0.8-2.19,2.44-3.56,4.27-3.56c0.61,0,1.23,0.14,1.86,0.42c0.38,0.17,0.57,0.53,0.48,0.93c-0.12,0.56-0.77,0.91-1.3,0.67
	c-1.04-0.46-1.95-0.27-2.69,0.57c-1.04,1.17-1.43,3.17-1.28,4.46c0.13,1.05,0.58,1.82,1.31,2.23c0.25-0.02,0.46,0.08,0.64,0.25
	c1.03,0.25,2.26-0.12,3.24-0.97c2.15-1.87,3.5-4.22,4.92-6.72c0.84-1.47,1.71-2.99,2.75-4.38c0.02-0.02,0.03-0.04,0.05-0.06
	l1.64-12.29c0.06-0.45,0.45-0.78,0.89-0.78l0.12,0.01c0.49,0.07,0.84,0.52,0.78,1.01l-2.45,18.35c1.11-0.51,2.66-0.97,4.6-0.97
	c1.45,0,2.94,0.27,4.44,0.8l-2.89-18.15c-0.08-0.49,0.26-0.95,0.75-1.03l0.14-0.01c0.45,0,0.82,0.32,0.89,0.76l1.94,12.18
	c0.16,0.06,0.3,0.17,0.41,0.31c1.04,1.4,1.91,2.91,2.75,4.38c1.43,2.49,2.77,4.84,4.92,6.72c1.05,0.91,2.45,1.27,3.49,0.9
	c0.13-0.12,0.29-0.2,0.46-0.22c0.68-0.42,1.11-1.18,1.23-2.19c0.16-1.29-0.24-3.29-1.28-4.46c-0.75-0.84-1.65-1.03-2.69-0.57
	c-0.53,0.24-1.18-0.11-1.3-0.67c-0.08-0.39,0.1-0.76,0.48-0.93c2.51-1.13,4.97,0.14,6.08,3c0.76,1.95,0.82,4.72-0.67,6.53
	c1.12,0.5,2.58,1.03,3.96,1.03c1.2,0,2.2-0.38,3.07-1.17c0.03-0.02,0.05-0.05,0.07-0.07l0.08-0.09c1.12-1.21,1.06-2.81,0.81-3.94
	c-0.2-0.93-0.77-1.91-1.42-1.91c-0.34,0-0.68,0.28-0.9,0.52c-0.43,0.46-1.22,0.28-1.47-0.28c-0.14-0.33-0.08-0.7,0.17-0.97
	c1.41-1.52,3.02-1.5,4.2-0.03c1.05,1.31,1.63,3.66,1.28,5.23c-0.07,0.29-0.15,0.58-0.25,0.86c2.57-0.35,5.32-1.13,6.04-3.47
	c-0.01-0.19,0.04-0.38,0.14-0.54c0.03-0.19,0.05-0.39,0.06-0.59c0.04-1.01-0.27-1.94-0.82-2.51c-0.39-0.41-0.9-0.62-1.5-0.62
	c-0.48,0.01-1.03,0.11-1.22,0.58c-0.19,0.49,0.06,1.21,0.61,1.74c0.26,0.25,0.35,0.62,0.21,0.95c-0.23,0.57-1.02,0.77-1.47,0.34
	c-1.52-1.47-1.31-2.77-1.05-3.43c0.47-1.17,1.79-1.98,3.2-1.98c1.2,0,2.23,0.57,2.91,1.59c0.47,0.71,0.77,1.54,0.88,2.42
	c2.53-2.08,4.33-4.18,4.97-7.21c0.19-0.9,0.14-1.57-0.15-1.93c-0.18-0.22-0.45-0.33-0.82-0.33c-1.11,0-2.54,0.99-2.84,1.97
	c-0.18,0.58,0.06,1.09,0.71,1.53c0.34,0.23,0.48,0.63,0.36,1.03c-0.17,0.57-0.83,0.83-1.32,0.5c-1.31-0.88-1.81-2.22-1.37-3.66
	c0.55-1.8,2.41-3.21,4.24-3.21c0.48,0,0.94,0.09,1.38,0.28c0.62,0.26,1.07,0.68,1.36,1.25c0.91-1.44,1.53-2.95,1.82-4.43
	c0.16-0.82,0-1.73-0.42-2.3c-0.28-0.39-0.66-0.61-1.14-0.66c-0.65-0.07-0.88,0.17-0.97,0.35c-0.38,0.77,0.26,2.51,0.74,3.12
	c0.22,0.29,0.26,0.66,0.1,0.99c-0.28,0.57-1.06,0.7-1.45,0.2c-1.96-2.51-1.48-4.27-0.74-5.31c0.51-0.71,1.38-1.14,2.32-1.14
	c0.72,0,1.4,0.25,1.91,0.69C112.53,65.86,107.86,72.13,106.67,73.6z"/>
</svg>
