<?xml version="1.0" encoding="utf-8"?>
<!-- Generator: Adobe Illustrator 18.0.0, SVG Export Plug-In . SVG Version: 6.00 Build 0)  -->
<!DOCTYPE svg PUBLIC "-//W3C//DTD SVG 1.1//EN" "http://www.w3.org/Graphics/SVG/1.1/DTD/svg11.dtd">
<svg version="1.1" id="Layer_1" xmlns="http://www.w3.org/2000/svg" xmlns:xlink="http://www.w3.org/1999/xlink" x="0px" y="0px"
	 viewBox="159.66 155.03 40.67 50" enable-background="new 159.66 155.03 40.67 50" xml:space="preserve" preserveAspectRatio="xMinYMin slice">
<path fill="#333333" d="M180.38,158.6h-1.1c-0.58,0-1.06-0.47-1.06-1.07v-0.03c0-1.36-1.1-2.47-2.47-2.47h-0.06
	c-1.37,0-2.47,1.11-2.47,2.47v0.03c0,0.58-0.47,1.07-1.06,1.07h-1.1c-1.17,0-2.12,0.95-2.12,2.12v0.04c0,1.17,0.95,2.12,2.12,2.12
	h9.32c1.17,0,2.12-0.95,2.12-2.12v-0.04C182.5,159.56,181.55,158.6,180.38,158.6z M175.72,158.6c-0.59,0-1.07-0.48-1.07-1.07
	c0-0.59,0.48-1.07,1.07-1.07c0.59,0,1.07,0.48,1.07,1.07C176.79,158.12,176.31,158.6,175.72,158.6z M180.48,200.02h-17.96
	c-1.58,0-2.86-1.28-2.86-2.86v-34.28c0-1.58,1.28-2.86,2.14-2.86h5.78c-0.05,0.24-0.08,0.48-0.08,0.74c0,1.96,1.59,3.55,3.55,3.55
	h9.32c1.96,0,3.55-1.59,3.55-3.59c0-0.24-0.03-0.47-0.07-0.69h4.36c2.29,0,3.57,1.28,3.57,2.86v21.46
	c-0.24-0.02-0.47-0.03-0.71-0.03c-0.98,0-1.94,0.14-2.86,0.37v-16.8h-24.99v28.56h16.45C179.75,197.71,180.03,198.91,180.48,200.02z
	 M191.06,186.46c-5.13,0-9.28,4.16-9.28,9.29s4.15,9.29,9.28,9.29s9.28-4.17,9.28-9.3S196.18,186.46,191.06,186.46z M197.12,193.83
	l-5.71,6.43c-0.28,0.31-0.67,0.48-1.07,0.48c-0.31,0-0.63-0.1-0.89-0.31l-3.57-2.86c-0.62-0.49-0.71-1.39-0.22-2.01
	s1.39-0.72,2.01-0.22l2.51,2.01l4.8-5.41c0.53-0.59,1.42-0.64,2.02-0.12C197.59,192.34,197.64,193.24,197.12,193.83z M184.63,180.03
	h-11.41c-0.4,0-0.71-0.32-0.71-0.71v-0.71c0-0.4,0.32-0.71,0.71-0.71h11.41c0.4,0,0.71,0.32,0.71,0.71v0.71
	C185.36,179.7,185.03,180.03,184.63,180.03z M184.63,173.6h-11.41c-0.4,0-0.71-0.32-0.71-0.71v-0.71c0-0.4,0.32-0.71,0.71-0.71
	h11.41c0.4,0,0.71,0.32,0.71,0.71v0.71C185.36,173.28,185.03,173.6,184.63,173.6z M181.07,185.74h-7.85c-0.4,0-0.71-0.32-0.71-0.71
	v-0.71c0-0.4,0.32-0.71,0.71-0.71h7.85c0.4,0,0.71,0.32,0.71,0.71v0.71C181.79,185.42,181.47,185.74,181.07,185.74z M179.64,192.17
	h-6.42c-0.4,0-0.71-0.32-0.71-0.71v-0.71c0-0.4,0.32-0.71,0.71-0.71h6.42c0.4,0,0.71,0.32,0.71,0.71v0.71
	C180.36,191.85,180.03,192.17,179.64,192.17z M171.15,170.96l-2.63,2.96c-0.13,0.14-0.31,0.22-0.49,0.22
	c-0.14,0-0.29-0.05-0.41-0.14l-1.64-1.31c-0.28-0.23-0.33-0.64-0.1-0.92s0.64-0.33,0.92-0.1l1.15,0.92l2.21-2.49
	c0.24-0.27,0.65-0.3,0.92-0.05C171.36,170.27,171.38,170.69,171.15,170.96z M171.15,177.31l-2.63,2.96
	c-0.13,0.14-0.31,0.22-0.49,0.22c-0.14,0-0.29-0.05-0.41-0.14l-1.64-1.31c-0.28-0.23-0.33-0.64-0.1-0.92
	c0.23-0.28,0.64-0.33,0.92-0.1l1.15,0.92l2.21-2.49c0.24-0.27,0.65-0.3,0.92-0.05C171.36,176.63,171.38,177.04,171.15,177.31z
	 M171.15,183.39l-2.63,2.96c-0.13,0.14-0.31,0.22-0.49,0.22c-0.14,0-0.29-0.05-0.41-0.14l-1.65-1.31c-0.28-0.23-0.33-0.64-0.1-0.92
	c0.23-0.29,0.64-0.33,0.92-0.1l1.15,0.92l2.21-2.49c0.24-0.27,0.65-0.3,0.92-0.05C171.36,182.7,171.38,183.12,171.15,183.39z
	 M171.15,189.51l-2.63,2.96c-0.13,0.14-0.31,0.22-0.49,0.22c-0.14,0-0.29-0.05-0.41-0.14l-1.64-1.31c-0.28-0.23-0.33-0.64-0.1-0.92
	c0.23-0.29,0.64-0.33,0.92-0.1l1.15,0.92l2.21-2.49c0.24-0.27,0.65-0.3,0.92-0.05C171.36,188.82,171.38,189.24,171.15,189.51z"/>
</svg>
