<svg xmlns="http://www.w3.org/2000/svg" viewBox="0 0 48 59" enable-background="new 0 0 48 59" preserveAspectRatio="none slice"><path fill="#333" d="M24.45 4.21h-1.3c-.69 0-1.25-.56-1.25-1.26v-.03c0-1.61-1.3-2.92-2.91-2.92h-.07c-1.62 0-2.92 1.31-2.92 2.92v.04c0 .69-.56 1.26-1.25 1.26h-1.3c-1.38 0-2.5 1.12-2.5 2.5v.05c0 1.38 1.12 2.5 2.5 2.5h11c1.38 0 2.5-1.12 2.5-2.5v-.05c0-1.38-1.12-2.51-2.5-2.51zm-5.5 0c-.7 0-1.26-.57-1.26-1.26 0-.7.57-1.26 1.26-1.26.7 0 1.26.57 1.26 1.26 0 .7-.57 1.26-1.26 1.26zm5.62 48.89h-21.2c-1.86 0-3.37-1.51-3.37-3.37v-40.46c0-1.86 1.51-3.37 2.53-3.37h6.82c-.06.28-.09.57-.09.87 0 2.31 1.88 4.19 4.19 4.19h11c2.31 0 4.19-1.88 4.19-4.24 0-.28-.03-.55-.08-.82h5.14c2.7 0 4.21 1.51 4.21 3.37v25.33c-.28-.02-.56-.04-.84-.04-1.16 0-2.29.16-3.37.44v-19.83h-29.49v33.71h19.41c.09 1.49.42 2.91.95 4.22zm12.48-16.01c-6.05 0-10.95 4.91-10.95 10.96 0 6.05 4.9 10.96 10.95 10.96s10.95-4.92 10.95-10.97c0-6.05-4.9-10.95-10.95-10.95zm7.16 8.7l-6.74 7.59c-.33.37-.79.57-1.26.57-.37 0-.74-.12-1.05-.37l-4.21-3.37c-.73-.58-.84-1.64-.26-2.37.58-.73 1.64-.85 2.37-.26l2.96 2.37 5.67-6.39c.62-.7 1.68-.76 2.38-.14.69.61.75 1.68.14 2.37zm-14.74-16.29h-13.47c-.47 0-.84-.38-.84-.84v-.84c0-.47.38-.84.84-.84h13.47c.47 0 .84.38.84.84v.84c.01.46-.37.84-.84.84zm0-7.59h-13.47c-.47 0-.84-.38-.84-.84v-.84c0-.47.38-.84.84-.84h13.47c.47 0 .84.38.84.84v.84c.01.47-.37.84-.84.84zm-4.21 14.33h-9.26c-.47 0-.84-.38-.84-.84v-.84c0-.47.38-.84.84-.84h9.26c.47 0 .84.38.84.84v.84c.01.47-.37.84-.84.84zm-1.68 7.59h-7.58c-.47 0-.84-.38-.84-.84v-.84c0-.47.38-.84.84-.84h7.58c.47 0 .84.38.84.84v.84c0 .46-.38.84-.84.84zm-10.03-25.03l-3.1 3.49c-.15.17-.37.26-.58.26-.17 0-.34-.06-.48-.17l-1.94-1.55c-.33-.27-.39-.76-.12-1.09.27-.33.76-.39 1.09-.12l1.36 1.09 2.61-2.94c.28-.32.77-.35 1.09-.06.32.28.35.77.07 1.09zm0 7.5l-3.1 3.49c-.15.17-.37.26-.58.26-.17 0-.34-.06-.48-.17l-1.94-1.55c-.33-.27-.39-.76-.12-1.09.27-.33.76-.39 1.09-.12l1.36 1.09 2.61-2.94c.28-.32.77-.35 1.09-.06.32.28.35.77.07 1.09zm0 7.17l-3.1 3.49c-.15.17-.37.26-.58.26-.17 0-.34-.06-.48-.17l-1.95-1.55c-.33-.27-.39-.76-.12-1.09.27-.34.76-.39 1.09-.12l1.36 1.09 2.61-2.94c.28-.32.77-.35 1.09-.06.33.28.36.77.08 1.09zm0 7.22l-3.1 3.49c-.15.17-.37.26-.58.26-.17 0-.34-.06-.48-.17l-1.94-1.55c-.33-.27-.39-.76-.12-1.09.27-.34.76-.39 1.09-.12l1.36 1.09 2.61-2.94c.28-.32.77-.35 1.09-.06.32.28.35.77.07 1.09z"/></svg>
