<svg xmlns="http://www.w3.org/2000/svg" viewBox="0 0 287.27 276.27" enable-background="new 0 0 287.27 276.27"><path fill="#FAAF41" d="M13.31 203.86l-1.2 3.65c-2.43 7.37 1.58 15.32 8.95 17.75l152.67 50.31c1.46.48 2.94.71 4.4.71 5.9 0 11.4-3.75 13.35-9.66l6.7-20.33-17-5.6-1.1 3.33c-1.95 5.91-7.44 9.66-13.35 9.66-1.46 0-2.94-.23-4.4-.71l-149.02-49.11M273.96 72.41l-49.11 149.02c-1.95 5.91-7.44 9.66-13.35 9.66-1.46 0-2.94-.23-4.4-.71l-3.33-1.1-5.6 17 20.33 6.7c1.46.48 2.94.71 4.4.71 5.9 0 11.4-3.75 13.35-9.66l50.31-152.67c2.43-7.37-1.58-15.32-8.95-17.75l-3.65-1.2"/><path fill="#F58522" d="M186.78 223.69l-5.6 17 16.99 5.6 5.6-17-16.99-5.6"/><path fill="#FAAF41" d="M64.37 22.58c-5.9 0-11.4 3.75-13.35 9.66l-50.31 152.67c-2.43 7.37 1.58 15.32 8.95 17.75l3.65 1.2 49.11-149.03c1.95-5.91 7.44-9.66 13.35-9.66 1.46 0 2.94.23 4.4.71l3.33 1.1 5.6-17-20.33-6.7c-1.46-.47-2.95-.7-4.4-.7"/><path fill="#F58522" d="M75.76 45.17c-5.9 0-11.4 3.75-13.35 9.66l-49.1 149.03 149.02 49.11c1.46.48 2.94.71 4.4.71 5.9 0 11.4-3.75 13.35-9.66l1.1-3.33-115.35-38.02c-7.37-2.43-11.38-10.38-8.95-17.75l1.2-3.65-3.65-1.2c-7.37-2.43-11.38-10.38-8.95-17.75l38.01-115.34-3.33-1.1c-1.46-.48-2.94-.71-4.4-.71"/><path fill="#F16A24" d="M58.08 181.28l-1.2 3.65c-2.43 7.37 1.58 15.32 8.95 17.75l115.35 38.01 5.6-17-128.7-42.41"/><path fill="#FAAF41" d="M109.14 0c-5.9 0-11.4 3.75-13.35 9.66l-6.7 20.33 17 5.6 1.1-3.33c1.95-5.91 7.44-9.66 13.35-9.66 1.46 0 2.94.23 4.4.71l149.02 49.11 1.2-3.65c2.43-7.37-1.58-15.32-8.95-17.75l-152.67-50.31c-1.46-.48-2.94-.71-4.4-.71"/><path fill="#F58522" d="M120.53 22.6c-5.9 0-11.4 3.75-13.35 9.66l-1.1 3.33 115.36 38.01c7.37 2.43 11.38 10.38 8.95 17.75l-1.2 3.65 3.65 1.2c7.37 2.43 11.38 10.38 8.95 17.75l-38.01 115.35 3.33 1.1c1.46.48 2.94.71 4.4.71 5.9 0 11.4-3.75 13.35-9.66l49.11-149.02-149.03-49.12c-1.47-.49-2.95-.71-4.41-.71"/><path fill="#F16A24" d="M229.19 94.99l-42.41 128.7 17 5.6 38.01-115.35c2.43-7.37-1.58-15.32-8.95-17.75l-3.65-1.2"/><path fill="#F58522" d="M89.09 29.99l-5.6 16.99 17 5.6 5.6-16.99-17-5.6"/><path fill="#F16A24" d="M83.49 46.98l-38.01 115.35c-2.43 7.37 1.58 15.32 8.95 17.75l3.65 1.2 42.41-128.7-17-5.6M106.09 35.59l-5.6 17 128.7 42.41 1.2-3.65c2.43-7.37-1.58-15.32-8.95-17.75l-115.35-38.01"/><path fill="#DF5126" d="M100.49 52.58l-42.41 128.7 128.7 42.41 42.41-128.7-128.7-42.41"/></svg>