<svg xmlns="http://www.w3.org/2000/svg" viewBox="0 0 300.95 300.95" enable-background="new 0 0 300.95 300.95"><path fill="#FAAF41" d="M160.68 49.98l-4.67-2.86 3.83 7.02z"/><path fill="#F58522" d="M154.81 78.9l5.03-24.76-3.83-7.02-7.76-4.74-7.06 11.56z"/><path fill="#F16A24" d="M154.81 78.9l-13.63-24.96-3.36 5.5c-2.1 3.43-5.51 5.55-9.2 6.13l21.06 38.57 5.13-25.24zM69.54 33.09l-15.66-9.57c-.46 1.13-1.12 2.19-1.97 3.1-.66.71-1.45 1.31-2.33 1.82l6.54 11.97 13.42-7.32z"/><path fill="#DF5126" d="M128.63 65.56c-1.64.26-3.34.2-5-.19-1.33-.31-2.63-.83-3.85-1.58l-50.24-30.7-13.42 7.33 30.48 55.82c2.02 3.71 1.33 8.17-1.41 11.09-.68.72-1.48 1.35-2.39 1.85l-5.82 3.18c.38.19.76.38 1.13.61l17.06 10.42 10.42-17.06c3.03-4.96 8.83-7.2 14.2-5.94 1.33.31 2.63.83 3.85 1.58l23.57 14.4 2.49-12.25-21.07-38.56z"/><path fill="#FAAF41" d="M40.26 149.74l3.43-5.62-5.77 3.15c.9.66 1.7 1.48 2.34 2.47zM70.12 91.4c2.02 3.71 1.33 8.17-1.41 11.09-.68.72-1.48 1.35-2.39 1.85l-2.09 1.14 3.33 6.1c2.15-.63 4.46-.72 6.7-.2.93.22 1.84.54 2.72.97l5.82-3.18c.92-.5 1.72-1.13 2.39-1.85 2.74-2.92 3.43-7.39 1.41-11.09l-30.48-55.81-6.54-11.97-.19.12-10.46 5.71 31.19 57.12z"/><path fill="#F58522" d="M53.57 111.31l4.8 8.8 1.69-2.77c1.77-2.89 4.48-4.85 7.5-5.74l-3.33-6.1-10.66 5.81zM28.54 146.16c3.16-1.35 6.73-.85 9.38 1.1l5.77-3.15 12.46-20.38-25.92 14.15-1.69 8.28z"/><path fill="#F16A24" d="M33.38 122.32l-3.16 15.57 25.93-14.15 2.22-3.64-4.8-8.79z"/><path fill="#F58522" d="M38.48 58.33c3.13 1.64 5.26 4.73 5.67 8.22.09.72.09 1.46.02 2.21l20.05 36.72 2.09-1.14c.92-.5 1.72-1.13 2.39-1.85 2.74-2.92 3.43-7.39 1.41-11.09l-31.18-57.12-10.46 5.71 10.01 18.34z"/><path fill="#F16A24" d="M22.65 54.68l13 2.64c1.01.21 1.96.56 2.84 1.01l-10.02-18.34-6.69 3.65-1.4 6.88 2.27 4.16zM64.23 105.49l-20.05-36.73c-.04.39-.08.79-.16 1.18l-3.53 17.4 13.08 23.96 10.66-5.81z"/><path fill="#DF5126" d="M19.66 54.08l2.99.6-2.27-4.15zM40.48 87.34l-7.1 34.98 20.19-11.01z"/><path fill="#FAAF41" d="M37.92 147.27c-2.65-1.95-6.22-2.45-9.38-1.1l-3.15 15.5 11.36-6.2 3.5-5.73c-.63-.99-1.43-1.81-2.33-2.47z"/><path fill="#F58522" d="M25.4 161.67l-3.33 16.42c.29-.02.59-.02.88-.02l13.81-22.6-11.36 6.2z"/><path fill="#F16A24" d="M22.06 178.09l-.43 2.12 1.31-2.14c-.29-.01-.58 0-.88.02z"/><path fill="#F58522" d="M269.43 176.88l-34.8-7.06 17.11 10.45c1.72 1.05 3.09 2.44 4.13 4.02l13.56-7.41zM299.5 158.14c-1.18 5.8-6.83 9.54-12.63 8.37l-2.87-.58-.58 2.87c-.13.66-.33 1.3-.58 1.9 3.73-.19 7.42 1.7 9.33 5.2l1.31 2.4 2.4-1.31c1.61-.88 3.36-1.26 5.07-1.21v-24.81l-1.45 7.17z"/><path fill="#F16A24" d="M284 165.92l2.87.58c5.8 1.18 11.45-2.57 12.63-8.37l1.46-7.18v-68.55l-16.96 83.52z"/><path fill="#FAAF41" d="M154.81 78.9l-5.12 25.23-2.49 12.25 12.38 7.56 14.07-69.32c-1.49.17-3.01.1-4.49-.25-1.33-.31-2.63-.83-3.85-1.58l-4.62-2.83-.84 4.16-5.04 24.78z"/><path fill="#F58522" d="M173.65 54.64l-14.07 69.32 12.15 7.42 16.12-79.41c1.18-5.8 6.83-9.54 12.63-8.37l1.68.34-7.57-13.87-11.23 18.38c-2.2 3.58-5.83 5.74-9.71 6.19z"/><path fill="#F16A24" d="M300.95 64v-8.46l-11.29 6.17zM269.43 176.88l9.13-4.99c1.36-.74 2.82-1.13 4.27-1.2.25-.61.45-1.24.58-1.9l.58-2.87-83.46-16.94 34.09 20.83 34.81 7.07zM187.85 51.97l-16.12 79.41 12.38 7.57 18.95-93.35-.9-1.65-1.68-.34c-5.8-1.18-11.45 2.56-12.63 8.36z"/><path fill="#DF5126" d="M249.72 83.51c-4.86 2.65-10.95.86-13.6-3.99l-1.31-2.4-2.4 1.31c-4.86 2.65-10.95.86-13.6-3.99l-15.75-28.84-18.95 93.35 16.43 10.04 83.46 16.93 16.95-83.52v-18.4l-11.3-2.29-39.93 21.8z"/><path fill="#FAAF41" d="M65.61 140.3c3.03-4.96 8.83-7.2 14.2-5.94 1.33.31 2.63.83 3.85 1.58l2.8 1.71 8.72-14.26-17.06-10.42c-.37-.23-.75-.42-1.13-.61-.88-.43-1.8-.76-2.72-.97-2.24-.52-4.54-.43-6.7.2-3.02.89-5.73 2.85-7.5 5.74l-1.69 2.77-2.22 3.63-12.46 20.38-3.43 5.62-3.5 5.73-13.81 22.6-1.31 2.14-1.99 9.78c-.45 2.24-1.58 4.17-3.12 5.63l7.21 13.2 41.86-68.51z"/><path fill="#F58522" d="M63.34 291.44c-.38.65-.83 1.26-1.35 1.82-.71.76-1.55 1.42-2.52 1.94l-10.52 5.74h29.95l-15.56-9.5zM86.45 137.66l-2.8-1.71c-1.23-.75-2.52-1.27-3.85-1.58-5.37-1.26-11.16.98-14.2 5.94l-41.87 68.52 9.07 16.61 53.65-87.78z"/><path fill="#F16A24" d="M55.55 267.09l7.92 14.51c1.74 3.19 1.57 6.91-.13 9.84l15.56 9.51h32.05l-55.4-33.86z"/><path fill="#FAAF41" d="M171.73 131.38l-12.15-7.42-12.38-7.56-23.57-14.4c-1.23-.75-2.52-1.27-3.85-1.58-5.37-1.26-11.16.98-14.2 5.94l-10.42 17.04 14.26 8.72 1.71-2.8c3.03-4.96 8.83-7.2 14.19-5.94 1.33.31 2.63.83 3.85 1.58l111.05 67.86 15.64-8.54c-1.03-1.58-2.41-2.97-4.13-4.02l-17.11-10.45-34.09-20.83-16.43-10.04-12.37-7.56z"/><path fill="#F58522" d="M174.15 300.95h4.02l-1.9-3.47zM206.22 191.26c6.05 3.7 8.03 11.5 4.58 17.63l29.43-16.07-111.05-67.86c-1.23-.75-2.52-1.27-3.85-1.58-5.37-1.26-11.16.98-14.19 5.94l-1.71 2.8 96.79 59.14z"/><path fill="#F16A24" d="M167.03 280.56l-12.47 20.39h19.59l2.12-3.47z"/><path fill="#F58522" d="M86.449 137.651l8.713-14.259 14.259 8.713-8.713 14.259z"/><path fill="#F16A24" d="M32.8 225.44l9.25 16.93 58.66-96-14.26-8.71zM210.8 208.89c3.45-6.13 1.47-13.94-4.58-17.63l-96.79-59.15-8.72 14.26 105.98 64.76 4.11-2.24z"/><path fill="#DF5126" d="M163.86 274.75c-2.13-3.9-1.4-8.58 1.48-11.66.71-.76 1.55-1.42 2.52-1.94l13.4-7.31-7.31-13.4c-2.13-3.9-1.4-8.58 1.48-11.66.71-.76 1.55-1.42 2.52-1.94l28.75-15.7-105.98-64.76-58.66 95.99 13.5 24.73 55.41 33.86h43.61l12.47-20.4-3.19-5.81z"/><path fill="#FAAF41" d="M295.88 176.98l-2.4 1.31 7.47 13.69v-16.22c-1.71-.04-3.46.34-5.07 1.22zM181.18 279.84c-2.13-3.9-1.4-8.58 1.48-11.66.71-.76 1.55-1.42 2.52-1.94l2.2-1.2-6.12-11.2-13.4 7.31c-.96.53-1.8 1.19-2.52 1.94-2.88 3.07-3.61 7.76-1.48 11.66l3.17 5.8 9.24 16.93 1.89 3.47h14.54l-11.52-21.11z"/><path fill="#F58522" d="M187.37 265.04l-2.2 1.2c-.96.53-1.8 1.19-2.52 1.94-2.88 3.07-3.61 7.76-1.48 11.66l11.53 21.12h14.27l-19.6-35.92z"/><path fill="#FAAF41" d="M269.43 176.88l-13.57 7.41-15.64 8.54-29.43 16.07-4.11 2.24-28.75 15.7c-.96.53-1.8 1.19-2.52 1.94-2.88 3.07-3.61 7.76-1.48 11.66l7.31 13.4 11.2-6.12-1.2-2.2c-2.13-3.9-1.4-8.58 1.48-11.66.71-.76 1.55-1.42 2.52-1.94l98.23-53.63-1.31-2.4c-1.91-3.5-5.6-5.39-9.33-5.2-1.45.08-2.91.46-4.27 1.2l-9.13 4.99z"/><path fill="#F58522" d="M293.48 178.29l-98.23 53.63c-.96.53-1.8 1.19-2.52 1.94-2.88 3.07-3.61 7.76-1.48 11.66l1.2 2.2 76.03-41.51c4.86-2.65 10.95-.86 13.6 3.99l1.31 2.4 2.4-1.31c4.86-2.65 10.95-.86 13.6 3.99l1.55 2.83v-26.14l-7.46-13.68z"/><path fill="#F16A24" d="M299.41 215.29c-2.65-4.86-8.74-6.65-13.6-3.99l-2.4 1.31 17.55 32.15v-26.63l-1.55-2.84z"/><path fill="#F58522" d="M187.368 265.035l-6.115-11.199 11.199-6.115 6.115 11.199z"/><path fill="#F16A24" d="M198.57 258.92l-11.2 6.12 19.61 35.91h14.54zM283.4 212.61l-1.31-2.4c-2.65-4.86-8.74-6.65-13.6-3.99l-76.03 41.51 6.12 11.2 84.82-46.32z"/><path fill="#DF5126" d="M283.4 212.61l-84.83 46.31 22.95 42.03h79.43v-56.19z"/><path fill="#FAAF41" d="M19.65 189.99l1.99-9.78.43-2.12 3.33-16.42 3.15-15.5 1.68-8.28 3.16-15.56 7.1-34.98 3.53-17.4c.08-.4.13-.79.16-1.18.07-.75.06-1.49-.02-2.21-.41-3.49-2.54-6.58-5.67-8.22-.87-.46-1.82-.81-2.84-1.01l-13-2.64-2.99-.61-2.71 13.36 2.62.53c4.65.94 7.98 4.77 8.51 9.23.13 1.1.09 2.25-.14 3.39l-20.15 99.25c.27.36.52.73.74 1.14l7.99 14.64c1.55-1.46 2.67-3.39 3.13-5.63zM20.38 50.53l1.4-6.88-14.5 7.91 12.38 2.52z"/><path fill="#F58522" d="M19.66 54.08l-12.38-2.52-1.15.63-2.54 12.54 13.36 2.71zM7.79 179.84l20.15-99.24c.23-1.15.27-2.29.14-3.39-.53-4.47-3.86-8.29-8.51-9.23l-2.62-.53-16.95 83.51v24.81c3.02.08 5.93 1.53 7.79 4.07z"/><path fill="#F16A24" d="M16.95 67.44l-13.36-2.71-3.59 17.67v68.56zM6.13 52.19l-6.13 3.35v8.46l3.59.73z"/><path fill="#DF5126" d="M3.59 64.73l-3.59-.73v18.4z"/><path fill="#FAAF41" d="M61.99 293.26c.52-.56.97-1.17 1.35-1.82 1.7-2.93 1.87-6.65.13-9.84l-7.92-14.51-13.5-24.73-9.24-16.93-9.07-16.61-7.21-13.2-7.99-14.64c-.22-.4-.47-.78-.74-1.14-1.87-2.54-4.77-3.99-7.79-4.07v16.22l46.15 84.53c2.13 3.9 1.4 8.58-1.48 11.66-.71.76-1.55 1.42-2.52 1.94l-2.2 1.2 5.26 9.63h3.73l10.52-5.74c.97-.53 1.81-1.19 2.52-1.95z"/><path fill="#F58522" d="M39.96 291.32l-11.2 6.12 1.92 3.51h14.54z"/><path fill="#F16A24" d="M28.76 297.44l-6.44 3.51h8.36z"/><path fill="#F58522" d="M39.96 291.32l2.2-1.2c.96-.53 1.8-1.19 2.52-1.94 2.88-3.07 3.61-7.76 1.48-11.66l-46.16-84.54v26.14l39.96 73.2z"/><path fill="#F16A24" d="M28.76 297.44l11.2-6.12-39.96-73.2v26.64z"/><path fill="#DF5126" d="M0 244.76v56.19h22.32l6.44-3.51z"/><path fill="#FAAF41" d="M119.78 63.79c1.23.75 2.52 1.27 3.85 1.58 1.66.39 3.35.44 5 .19 3.68-.57 7.1-2.7 9.2-6.13l3.36-5.5 7.07-11.56-14.26-8.72-1.71 2.8c-3.03 4.96-8.83 7.2-14.2 5.94-1.33-.31-2.63-.83-3.85-1.58l-66.08-40.38-2.08 1.14 7.31 13.4c1.5 2.74 1.57 5.87.49 8.55l15.66 9.57 50.24 30.7zM148.25 42.38l7.76 4.74 4.67 2.86 4.62 2.83c1.23.75 2.52 1.27 3.85 1.58 1.49.35 3.01.42 4.49.25 3.87-.45 7.51-2.6 9.7-6.19l11.23-18.38-9.24-16.93-7.53 12.33c-3.03 4.96-8.83 7.2-14.2 5.94-1.33-.31-2.63-.83-3.85-1.58l-2.8-1.71-8.7 14.26z"/><path fill="#F58522" d="M148.255 42.371l-14.259-8.714 8.714-14.259 14.259 8.714zM114.24 40.82c1.23.75 2.52 1.27 3.85 1.58 5.37 1.26 11.16-.98 14.2-5.94l1.71-2.8-55.1-33.66h-29.95l-.8.43 66.09 40.39z"/><path fill="#F16A24" d="M133.99 33.67l8.72-14.27-31.76-19.4h-32.05z"/><path fill="#F58522" d="M156.97 28.12l2.8 1.71c1.23.75 2.52 1.27 3.85 1.58 5.37 1.26 11.16-.98 14.2-5.94l7.53-12.33-7.18-13.14h-4.01l-17.19 28.12z"/><path fill="#F16A24" d="M142.71 19.4l14.26 8.72 17.18-28.12h-19.59z"/><path fill="#DF5126" d="M110.95 0l31.76 19.4 11.85-19.4z"/><path fill="#FAAF41" d="M234.81 77.11l1.31 2.4c2.65 4.86 8.74 6.65 13.6 3.99l39.94-21.8 11.3-6.17v-14.53l-66.15 36.11zM185.34 13.14l9.24 16.93 7.57 13.87.9 1.65 15.74 28.83c2.65 4.86 8.74 6.65 13.6 3.99l2.4-1.31-42.08-77.1h-14.54l7.17 13.14z"/><path fill="#F58522" d="M234.81 77.11l66.14-36.11v-14.27l-41.15 22.46c-4.86 2.65-10.95.86-13.6-3.99l-1.31-2.4-2.4 1.31c-4.86 2.65-10.95.86-13.6-3.99l-21.91-40.12h-14.27l42.1 77.11z"/><path fill="#F16A24" d="M244.88 42.8l1.31 2.4c2.65 4.86 8.74 6.65 13.6 3.99l41.15-22.47v-14.54l-56.06 30.62zM228.88 40.11c2.65 4.86 8.74 6.65 13.6 3.99l2.4-1.31-23.36-42.79h-14.54l21.9 40.11z"/><path fill="#DF5126" d="M244.88 42.8l56.07-30.62v-12.18h-79.43z"/><path fill="#FAAF41" d="M7.28 51.56l14.5-7.92 6.69-3.65 10.46-5.71 10.46-5.71.19-.12c.88-.51 1.66-1.11 2.33-1.82.85-.91 1.51-1.97 1.97-3.1 1.08-2.69 1-5.81-.49-8.55l-7.31-13.4-11.2 6.12 1.2 2.2c2.13 3.9 1.4 8.58-1.48 11.66-.71.76-1.55 1.42-2.52 1.94l-32.08 17.5v14.54l6.13-3.35 1.15-.63zM48.16.43l.79-.43h-3.73l.86 1.57z"/><path fill="#F58522" d="M34.88 7.69l11.2-6.12-.86-1.57h-14.54zM32.08 23.48c.96-.53 1.8-1.19 2.52-1.94 2.88-3.07 3.61-7.76 1.48-11.66l-1.2-2.2-34.88 19.05v14.27l32.08-17.52z"/><path fill="#F16A24" d="M34.88 7.69l-4.2-7.69h-8.36l-22.32 12.18v14.55z"/><path fill="#DF5126" d="M22.32 0h-22.32v12.18z"/></svg>