<svg xmlns="http://www.w3.org/2000/svg" width="123.855" height="123.855" viewBox="0 0 123.855 123.855" preserveAspectRatio="xMinYMin slice"><path d="M47.521 67.42l10.294 10.293-20.353 20.356-10.295-10.295 20.354-20.354zm22.643-22.647l-5.631 5.63 10.295 10.294 5.633-5.63-10.297-10.294zm15.202-25.586h-10.987l-6.717 6.771v10.988l20.623 20.741h10.986l6.891-6.832v-10.988l-20.796-20.68zm-6.376 51.867l-27.85-27.854c1.538-4.928.833-10.499-2.396-15.071-3.739-5.297-9.1-8.419-16.073-7.078l8.16 11.557-3.747 8.715-9.467.614-8.278-11.726c-2.315 5.136-2.467 12.283 1.368 17.713 4.69 6.644 13.288 8.893 20.533 5.963l26.95 26.95c-2.181 5.205-1.767 11.371 1.661 16.371 3.668 5.349 9.822 7.968 15.851 7.381l-8.003-11.669 3.865-8.664 9.475-.481 8.119 11.838c2.938-5.479 2.799-12.363-.959-17.845-4.355-6.35-12.215-8.859-19.209-6.714z"/></svg>
